<svg width="314" height="314" viewBox="0 0 314 314" fill="none" xmlns="http://www.w3.org/2000/svg">
<g clip-path="url(#clip0_23_175)">
<g opacity="0.15">
<path d="M202.273 61.544C199.296 63.6101 191.295 64.998 191.289 64.998C191.283 64.998 191.974 59.4465 192.062 59.1011C193.091 55.1007 197.425 47.9729 202.047 47.6903C205.369 47.4894 207.812 50.3782 207.699 53.5747C207.586 56.7712 204.81 59.7668 202.273 61.544Z" fill="#590F3F"/>
<path d="M180.236 162.219C180.236 162.407 180.236 162.583 180.236 162.771L177.473 164.536C177.473 163.782 177.473 163.023 177.473 162.231C177.473 160.008 177.517 157.628 177.58 155.185C175.288 154.757 173.023 154.193 170.798 153.496C168.97 156.466 163.601 160.586 162.904 161.113C164.103 162.947 165.296 164.712 166.439 166.37C167.23 167.506 167.997 168.593 168.738 169.642L165.73 170.232C165.215 169.478 164.7 168.706 164.172 167.902C162.916 166.049 161.66 164.04 160.373 161.967C159.556 162.313 152.837 165.107 149.446 165.013C146.362 164.932 142.456 163.965 140.559 161.308C138.663 158.652 139.165 154.953 142.06 153.301C146.079 151.003 153.609 154.595 156.655 157.383C156.837 157.546 158.589 159.55 159.676 160.831C159.154 159.983 158.633 159.16 158.106 158.281C157.051 156.542 156.052 154.777 154.966 152.887L153.471 150.061C152.956 149.125 152.529 148.076 152.045 147.071C150.972 144.729 150.004 142.305 149.081 139.843C147.562 140.766 142.104 143.956 139.033 144.34C135.962 144.723 131.968 144.34 129.689 142.022C127.409 139.705 127.346 135.949 129.959 133.858C133.582 130.982 141.57 133.393 145.031 135.686C145.25 135.824 147.543 137.752 148.761 138.826C148.215 137.337 147.668 135.855 147.166 134.335C145.721 129.939 144.396 125.456 143.052 120.984C142.634 119.615 142.215 118.25 141.796 116.89C141.263 117.222 134.888 121.16 131.416 121.587C128.351 121.976 124.344 121.587 122.071 119.27C119.798 116.952 119.729 113.197 122.341 111.106C125.965 108.23 133.953 110.641 137.413 112.933C137.671 113.109 140.949 115.879 141.746 116.626C140.817 113.618 139.862 110.635 138.807 107.733C137.376 103.824 135.691 100.013 133.764 96.3226C133.513 96.4734 126.856 100.612 123.327 101.051C120.262 101.435 116.256 101.051 113.976 98.7342C111.696 96.4168 111.634 92.6614 114.246 90.5702C117.87 87.6939 125.858 90.1054 129.318 92.3977C129.582 92.5798 133.086 95.5377 133.714 96.1656C133.607 95.9521 133.513 95.7198 133.4 95.5377C131.382 91.8695 129.043 88.3872 126.41 85.1317C124.985 83.3105 123.515 81.6588 122.014 80.1077C120.853 81.0057 115.502 85.05 112.368 85.7974C109.367 86.5133 105.341 86.5949 102.823 84.5414C100.305 82.4878 99.8272 78.7638 102.195 76.4213C105.486 73.162 113.687 74.6818 117.355 76.5846C117.556 76.6851 119.465 77.9599 120.846 78.9082C120.174 78.2048 119.49 77.4701 118.837 76.8107C116.369 74.2987 113.964 72.2012 111.816 70.336C110.56 69.2872 109.454 68.3641 108.381 67.51C106.785 67.7926 100.323 68.8665 97.2524 68.1003C94.1815 67.3342 90.6521 65.5883 89.371 62.5676C88.0899 59.547 89.371 56.0616 92.5613 55.0693C96.9573 53.694 103.558 58.8373 105.938 62.1971C106.145 62.4923 108.833 67.4221 108.751 67.4409H108.657C109.699 68.2385 110.811 69.1114 112.01 70.0911C114.202 71.9123 116.664 73.9847 119.188 76.4276C121.94 79.027 124.536 81.7866 126.963 84.6921C129.704 87.9265 132.148 91.4008 134.267 95.0729L134.336 95.2111C134.047 93.886 133.375 90.1557 133.356 89.8605C133.086 85.7408 134.983 77.6145 139.284 75.9064C142.381 74.6504 145.602 76.66 146.475 79.7372C147.348 82.8144 145.696 86.4631 143.812 88.9248C141.715 91.7069 135.083 95.299 134.556 95.5879C136.62 99.3754 138.428 103.297 139.969 107.325C140.88 109.668 141.727 112.06 142.544 114.466C142.337 113.31 142.154 112.274 142.148 112.129C141.878 108.01 143.775 99.8834 148.076 98.1752C151.173 96.9193 154.394 98.9288 155.267 102.006C156.14 105.083 154.488 108.801 152.604 111.263C150.72 113.725 145.125 116.915 143.63 117.763C143.938 118.692 144.258 119.609 144.553 120.538C145.992 124.985 147.411 129.431 148.949 133.726C149.483 135.246 150.067 136.722 150.651 138.204C150.463 137.18 150.318 136.32 150.306 136.182C150.036 132.062 151.932 123.936 156.234 122.228C159.33 121.003 162.552 122.981 163.425 126.058C164.298 129.136 162.652 132.879 160.768 135.34C158.884 137.802 153.86 140.71 152.064 141.689C152.692 143.19 153.32 144.691 154.03 146.085C154.52 147.046 154.928 148.007 155.474 148.949C156.021 149.891 156.517 150.833 157.025 151.744C158.081 153.483 159.154 155.286 160.222 156.956C160.957 158.124 161.679 159.223 162.401 160.335C161.849 158.821 160.825 155.851 160.768 155.587C160.122 152.018 160.396 148.344 161.566 144.911C161.476 144.515 161.423 144.111 161.409 143.705C161.296 140.515 163.751 137.639 167.061 137.859C171.677 138.16 175.972 145.313 176.977 149.32C177.04 149.552 177.398 152.19 177.605 153.854C177.643 152.861 177.662 151.888 177.706 150.864C177.787 148.836 177.919 146.808 178.057 144.628C178.164 143.58 178.271 142.518 178.377 141.451C178.484 140.383 178.685 139.272 178.83 138.173C179.232 135.661 179.759 133.073 180.349 130.505C178.572 130.436 172.261 130.09 169.485 128.715C166.709 127.34 163.576 124.828 162.966 121.625C162.357 118.422 164.367 115.263 167.683 114.981C172.292 114.579 177.63 120.997 179.232 124.802C179.332 125.041 180.174 127.905 180.607 129.481C180.971 127.942 181.329 126.404 181.75 124.865C182.968 120.4 184.337 115.929 185.681 111.457C186.096 110.088 186.491 108.719 186.893 107.344C186.265 107.344 178.729 107.08 175.639 105.535C172.876 104.166 169.73 101.654 169.121 98.4453C168.512 95.2362 170.521 92.0899 173.843 91.801C178.447 91.4054 183.785 97.8173 185.386 101.629C185.505 101.912 186.711 106.025 186.969 107.099C187.848 104.078 188.702 101.064 189.418 98.0622C190.41 94.009 191.136 89.8951 191.591 85.7471C191.295 85.7471 183.427 85.5148 180.287 83.9322C177.517 82.5632 174.377 80.0512 173.768 76.8421C173.159 73.633 175.162 70.4867 178.484 70.1978C183.094 69.8022 188.425 76.2141 190.027 80.026C190.159 80.3212 191.452 84.7549 191.628 85.5776C191.628 85.3389 191.704 85.0877 191.729 84.8491C192.073 80.6681 192.044 76.4648 191.641 72.2891C191.452 69.9843 191.138 67.7926 190.787 65.67C189.324 65.7767 182.623 66.1975 179.602 65.0922C176.701 64.0372 173.322 61.8831 172.349 58.762C171.375 55.6408 173.039 52.2873 176.305 51.6404C180.846 50.7361 186.849 56.5263 188.865 60.1373C188.972 60.332 189.864 62.4483 190.492 64.0058C190.316 63.0449 190.159 62.0527 189.977 61.1421C189.292 57.7132 188.457 54.6109 187.691 51.8728C187.245 50.3154 186.812 48.9212 186.391 47.615C184.896 46.987 178.918 44.3054 176.782 41.963C174.647 39.6205 172.669 36.2105 173.259 32.9951C173.85 29.7798 176.845 27.632 180.048 28.5489C184.494 29.8426 187.151 37.7491 187.276 41.8813C187.276 42.233 186.805 47.8348 186.73 47.8034L186.636 47.7657C187.069 49.0217 187.515 50.3468 187.973 51.8226C188.796 54.5481 189.7 57.6378 190.485 61.073C191.347 64.7583 191.993 68.4908 192.42 72.2514C192.915 76.4631 193.034 80.7104 192.778 84.9433V85.094C193.274 83.838 194.768 80.3463 194.913 80.07C196.96 76.4841 203.026 70.7568 207.554 71.705C210.814 72.3896 212.409 75.8184 211.442 78.8705C210.475 81.9226 207.046 84.0955 204.119 85.1505C200.835 86.306 193.318 85.6466 192.721 85.5901C192.354 89.891 191.699 94.1626 190.762 98.3762C190.228 100.832 189.619 103.293 188.972 105.749C189.437 104.669 189.857 103.708 189.926 103.582C191.974 99.9965 198.04 94.2628 202.568 95.2174C205.834 95.9019 207.422 99.3308 206.455 102.377C205.488 105.422 202.059 107.608 199.133 108.657C196.206 109.705 189.763 109.285 188.061 109.128C187.81 110.07 187.559 111.012 187.301 111.947C186.045 116.456 184.789 120.947 183.672 125.393C183.282 126.956 182.956 128.533 182.623 130.065C183.031 129.111 183.383 128.307 183.452 128.181C185.499 124.595 191.565 118.868 196.093 119.816C199.353 120.501 200.948 123.93 199.981 126.982C199.014 130.034 195.585 132.207 192.658 133.262C189.732 134.317 183.91 133.89 181.894 133.751C181.599 135.359 181.304 136.967 181.09 138.531C180.971 139.604 180.776 140.628 180.72 141.714C180.663 142.801 180.55 143.85 180.469 144.898C180.387 146.933 180.287 149.024 180.255 151.009C180.255 152.39 180.218 153.703 180.211 155.028C180.582 153.464 181.373 150.419 181.467 150.174C182.949 146.318 188.08 139.736 192.696 139.987C196.024 140.17 198.116 143.322 197.619 146.481C197.123 149.64 194.052 152.315 191.339 153.772C188.344 155.373 181.109 155.876 180.205 155.932C180.148 158.074 180.161 160.209 180.236 162.219Z" fill="#590F3F"/>
<path d="M122.033 79.1657C121.971 79.2222 119.521 74.1417 119.421 73.8151C118.071 69.9152 117.757 61.5754 121.456 58.7934C124.118 56.79 127.736 57.8514 129.406 60.5894C131.077 63.3275 130.43 67.353 129.287 70.223C127.943 73.5828 122.04 79.1594 122.033 79.1657Z" fill="#590F3F"/>
</g>
<g opacity="0.15">
<path d="M80.34 177.894C79.825 179.69 77.0869 182.861 77.0869 182.867C77.0869 182.874 75.5483 180.424 75.4667 180.261C74.5687 178.327 73.9721 174.069 75.7179 172.443C76.0171 172.182 76.3677 171.988 76.7469 171.872C77.1261 171.755 77.5255 171.72 77.9191 171.768C78.3128 171.816 78.692 171.946 79.0323 172.15C79.3725 172.354 79.6661 172.627 79.8941 172.951C80.9052 174.295 80.7733 176.361 80.34 177.894Z" fill="#590F3F"/>
<path d="M104.455 225.27L104.637 225.483L104.123 227.091L103.369 226.174C102.64 225.289 101.881 224.328 101.108 223.329C100.053 223.907 98.9643 224.423 97.8488 224.874C98.0937 226.658 97.2962 230.055 97.1894 230.489C98.2696 230.828 99.3183 231.148 100.329 231.431C101.02 231.632 101.68 231.814 102.32 231.983L101.309 233.239L99.9275 232.818C98.8285 232.479 97.6667 232.096 96.4735 231.688C96.26 232.096 94.4953 235.406 93.1137 236.48C91.8577 237.453 89.9737 238.364 88.3534 237.905C87.9679 237.814 87.6058 237.643 87.2907 237.403C86.9756 237.162 86.7146 236.859 86.5245 236.511C86.3344 236.163 86.2195 235.78 86.1873 235.385C86.1551 234.99 86.2063 234.593 86.3376 234.219C87.1854 231.989 91.3616 230.96 93.4905 231.079C93.6161 231.079 94.9726 231.311 95.8204 231.468C95.3368 231.299 94.8595 231.142 94.3634 230.96C93.3774 230.614 92.3978 230.237 91.349 229.835L89.8292 229.207C89.3143 229.006 88.7993 228.73 88.2844 228.485C87.0912 227.901 85.9105 227.229 84.7362 226.57C84.4284 227.436 83.298 230.489 82.2242 231.65C81.1503 232.812 79.4107 233.968 77.7402 233.779C77.3453 233.748 76.9613 233.634 76.6132 233.445C76.265 233.256 75.9606 232.996 75.7196 232.681C75.4785 232.367 75.3063 232.005 75.2141 231.62C75.1219 231.235 75.1117 230.834 75.1843 230.445C75.6867 228.115 79.6619 226.463 81.7846 226.256C81.9164 226.256 83.455 226.256 84.2966 226.287C83.5932 225.873 82.8898 225.465 82.1928 225.031C80.1832 223.775 78.1861 222.4 76.1891 221.056C75.5611 220.642 74.9331 220.24 74.349 219.8C74.2423 220.108 72.9737 223.769 71.7428 225.069C70.6501 226.224 68.9294 227.386 67.2589 227.198C66.864 227.167 66.48 227.053 66.1318 226.864C65.7837 226.674 65.4793 226.414 65.2383 226.1C64.9972 225.785 64.825 225.424 64.7328 225.038C64.6406 224.653 64.6304 224.253 64.703 223.863C65.2054 221.533 69.1806 219.882 71.3032 219.674C71.4602 219.674 73.6771 219.674 74.236 219.725C72.8858 218.833 71.5293 217.954 70.1603 217.144C68.3137 216.035 66.3962 215.049 64.4204 214.192C64.3764 214.336 63.0702 218.167 61.8079 219.492C60.7089 220.648 58.9944 221.816 57.3177 221.627C56.9226 221.596 56.5387 221.481 56.1908 221.291C55.8429 221.101 55.5389 220.84 55.2984 220.525C55.058 220.21 54.8865 219.848 54.7951 219.462C54.7037 219.077 54.6945 218.676 54.768 218.287C55.2704 215.957 59.2456 214.305 61.362 214.098C61.5316 214.098 63.9117 214.098 64.345 214.154C64.232 214.11 64.1126 214.048 63.9996 213.997C61.999 213.183 59.9285 212.553 57.8138 212.113C56.6457 211.856 55.5216 211.674 54.4226 211.523C54.253 212.258 53.4366 215.624 52.4318 216.943C51.427 218.261 49.8884 219.561 48.2054 219.555C47.8096 219.568 47.4156 219.497 47.0491 219.347C46.6825 219.197 46.3516 218.972 46.0779 218.686C45.8042 218.4 45.5938 218.059 45.4605 217.686C45.3272 217.313 45.2739 216.917 45.304 216.522C45.549 214.148 49.317 212.069 51.4019 211.63C51.515 211.63 52.6956 211.492 53.556 211.416C53.0536 211.36 52.5449 211.284 52.0676 211.234C50.2715 211.052 48.6136 210.989 47.1504 210.951C46.3151 210.951 45.5615 210.951 44.8582 210.951C44.3118 211.579 42.0824 214.123 40.6129 214.82C39.1434 215.517 37.1526 215.969 35.658 215.19C35.3002 215.02 34.9825 214.775 34.7256 214.473C34.4687 214.172 34.2783 213.819 34.1669 213.438C34.0555 213.058 34.0255 212.658 34.079 212.265C34.1325 211.873 34.2682 211.496 34.4773 211.159C35.7898 209.168 40.0916 209.061 42.1452 209.633C42.321 209.677 45.0089 210.769 44.9838 210.801L44.9461 210.838C45.6243 210.838 46.3528 210.801 47.1504 210.801C48.6199 210.801 50.2904 210.832 52.0864 210.983C54.0336 211.122 55.971 211.374 57.8892 211.736C60.0298 212.135 62.1313 212.721 64.1692 213.489L64.2445 213.52C63.6982 213.087 62.2098 211.818 62.103 211.711C60.6461 210.154 58.7495 206.292 59.905 204.175C60.1079 203.835 60.3801 203.54 60.7039 203.311C61.0278 203.082 61.3961 202.924 61.785 202.846C62.174 202.769 62.5749 202.774 62.9618 202.861C63.3487 202.948 63.713 203.116 64.031 203.353C65.4126 204.314 65.915 206.323 65.9966 207.912C66.0657 209.708 64.5962 213.306 64.4769 213.564C66.5402 214.397 68.544 215.371 70.4743 216.478C71.6047 217.106 72.7225 217.79 73.8341 218.481C73.3756 218.092 72.9674 217.734 72.9172 217.677C71.4602 216.126 69.5574 212.264 70.7192 210.179C70.9207 209.838 71.192 209.543 71.5152 209.313C71.8385 209.084 72.2065 208.925 72.5952 208.847C72.984 208.77 73.3847 208.775 73.7713 208.863C74.1579 208.95 74.5217 209.119 74.8389 209.356C76.2205 210.317 76.7229 212.327 76.8045 213.916C76.8862 215.504 75.6804 218.626 75.3538 219.442L76.6098 220.246C78.6383 221.546 80.6604 222.858 82.6826 224.083C83.3922 224.51 84.1082 224.912 84.8241 225.339C84.4159 224.987 84.0768 224.711 84.0265 224.642C82.5696 223.084 80.673 219.222 81.8285 217.137C82.0307 216.797 82.3023 216.502 82.6256 216.273C82.9489 216.045 83.3167 215.886 83.7052 215.809C84.0936 215.731 84.4941 215.736 84.8805 215.823C85.2669 215.91 85.6307 216.078 85.9482 216.315C87.3298 217.275 87.8322 219.285 87.9201 220.874C88.008 222.463 86.9028 225.27 86.5197 226.256C87.267 226.645 88.0143 227.035 88.7491 227.38C89.264 227.6 89.735 227.851 90.2626 228.046L91.7949 228.674C92.7808 229.025 93.7982 229.39 94.7716 229.71C95.4498 229.936 96.0967 230.137 96.7435 230.338C96.0339 229.917 94.6523 229.082 94.5455 228.975C93.1155 227.763 92.0212 226.204 91.3678 224.447C91.2003 224.321 91.0467 224.178 90.9094 224.02C90.637 223.732 90.4284 223.39 90.2974 223.016C90.1663 222.642 90.1157 222.245 90.1489 221.85C90.1821 221.455 90.2984 221.072 90.49 220.725C90.6817 220.378 90.9444 220.076 91.2611 219.838C93.1953 218.45 97.2522 219.894 98.9604 221.163C99.0608 221.238 100.066 222.174 100.694 222.77C100.38 222.362 100.066 221.973 99.7516 221.546C99.1236 220.711 98.4956 219.857 97.8676 218.946L96.957 217.571C96.643 217.125 96.3667 216.603 96.0653 216.12C95.3933 214.971 94.7653 213.777 94.1813 212.565C93.4528 213.118 90.8215 215.04 89.264 215.398C87.7066 215.756 85.6405 215.781 84.3468 214.701C84.0344 214.457 83.7768 214.15 83.5908 213.801C83.4048 213.451 83.2945 213.066 83.2673 212.671C83.24 212.276 83.2964 211.879 83.4326 211.507C83.5688 211.135 83.7819 210.796 84.0579 210.512C85.7661 208.841 89.9862 209.658 91.8702 210.656C91.9896 210.719 93.2644 211.586 93.9489 212.069C93.5972 211.341 93.233 210.606 92.9002 209.852C91.9268 207.68 91.0162 205.456 90.0804 203.221C89.7978 202.543 89.509 201.864 89.2201 201.186C88.9626 201.387 85.8854 203.742 84.1458 204.144C82.5947 204.502 80.516 204.527 79.2286 203.447C78.9164 203.203 78.659 202.896 78.4729 202.546C78.2869 202.196 78.1763 201.81 78.1485 201.415C78.1207 201.02 78.1762 200.623 78.3114 200.25C78.4466 199.878 78.6585 199.537 78.9334 199.252C80.6416 197.588 84.868 198.404 86.752 199.396C86.8965 199.472 88.724 200.721 89.1698 201.06C88.5418 199.572 87.9138 198.09 87.1916 196.664C86.2683 194.725 85.2194 192.847 84.0516 191.044C83.926 191.138 80.7295 193.606 78.9397 194.021C77.3886 194.379 75.3162 194.404 74.0225 193.324C73.7099 193.079 73.4522 192.772 73.2661 192.422C73.0801 192.072 72.9698 191.686 72.9426 191.29C72.9154 190.895 72.9717 190.498 73.108 190.125C73.2443 189.753 73.4574 189.413 73.7336 189.128C75.4418 187.464 79.6682 188.281 81.5522 189.273C81.6966 189.355 83.6623 190.698 84.0014 190.969C83.9323 190.862 83.8758 190.749 83.8067 190.642C82.5782 188.868 81.1954 187.205 79.6745 185.674C78.8455 184.814 78.004 184.042 77.1625 183.313C76.6161 183.834 74.079 186.189 72.5153 186.736C70.9516 187.282 68.9545 187.515 67.5478 186.585C67.211 186.376 66.9218 186.099 66.699 185.771C66.4762 185.443 66.3246 185.072 66.2542 184.682C66.1838 184.292 66.196 183.891 66.2901 183.506C66.3842 183.121 66.5581 182.76 66.8005 182.447C68.314 180.607 72.6032 180.952 74.5877 181.737C74.6944 181.775 75.7432 182.365 76.4717 182.748C76.0886 182.421 75.7055 182.076 75.3287 181.775C73.9346 180.632 72.5906 179.665 71.3912 178.823C70.7066 178.346 70.0724 177.931 69.5072 177.567C68.697 177.793 65.444 178.685 63.8552 178.452C62.2663 178.22 60.3321 177.504 59.522 176.028C59.3175 175.688 59.1875 175.308 59.1405 174.913C59.0935 174.519 59.1305 174.119 59.2492 173.74C59.3678 173.361 59.5654 173.011 59.8289 172.714C60.0924 172.417 60.4158 172.179 60.778 172.015C62.9697 171.08 66.6184 173.359 68.0188 174.967C68.1381 175.105 69.7772 177.479 69.7332 177.479H69.6893C70.267 177.837 70.8825 178.226 71.5733 178.666C72.7916 179.482 74.1606 180.418 75.5862 181.536C77.1235 182.728 78.5912 184.007 79.9822 185.367C81.5553 186.884 82.9906 188.538 84.2714 190.309L84.3154 190.378C84.0956 189.713 83.5555 187.866 83.5304 187.684C83.1724 185.58 83.7188 181.316 85.8352 180.217C86.1915 180.043 86.5806 179.946 86.977 179.932C87.3735 179.918 87.7683 179.989 88.1358 180.138C88.5033 180.287 88.8351 180.513 89.1096 180.799C89.3841 181.085 89.5951 181.426 89.7288 181.8C90.3568 183.363 89.6785 185.329 88.8558 186.692C87.9201 188.224 84.711 190.416 84.4598 190.592C85.7178 192.428 86.8528 194.345 87.8573 196.332C88.4476 197.487 89.0066 198.668 89.5529 199.855C89.3834 199.277 89.2389 198.756 89.2264 198.68C88.8684 196.577 89.4148 192.312 91.5311 191.213C91.8875 191.039 92.2765 190.942 92.673 190.928C93.0694 190.915 93.4643 190.985 93.8317 191.134C94.1992 191.284 94.531 191.509 94.8055 191.795C95.08 192.082 95.291 192.423 95.4247 192.796C96.0527 194.36 95.3745 196.325 94.5455 197.688C93.7166 199.051 91.0099 200.991 90.2877 201.494C90.4886 201.952 90.7022 202.404 90.9157 202.869C91.8891 205.073 92.8499 207.265 93.861 209.413C94.219 210.166 94.5958 210.895 94.9726 211.623C94.8218 211.108 94.7025 210.669 94.69 210.6C94.332 208.502 94.8784 204.232 96.9947 203.133C97.3516 202.96 97.741 202.864 98.1374 202.851C98.5339 202.838 98.9286 202.909 99.2959 203.059C99.6631 203.209 99.9947 203.434 100.269 203.721C100.543 204.007 100.754 204.348 100.888 204.722C101.516 206.285 100.838 208.245 100.009 209.608C99.1802 210.97 96.7372 212.748 95.8832 213.325C96.2851 214.06 96.6933 214.795 97.1392 215.492C97.4406 215.957 97.7044 216.428 98.0309 216.88C98.3575 217.332 98.6589 217.784 98.9729 218.236C99.6009 219.072 100.229 219.938 100.888 220.748C101.328 221.307 101.755 221.835 102.182 222.362C101.818 221.621 101.14 220.145 101.096 220.014C100.43 217.998 100.323 213.696 102.245 212.283C102.572 212.059 102.942 211.906 103.331 211.834C103.721 211.762 104.121 211.772 104.507 211.864C104.892 211.957 105.254 212.129 105.568 212.37C105.883 212.611 106.143 212.915 106.333 213.263C107.187 214.713 106.817 216.76 106.207 218.23C105.536 219.844 102.816 222.412 102.477 222.726C103.074 223.637 103.777 224.485 104.455 225.27Z" fill="#590F3F"/>
<path d="M54.1022 211.159C54.1022 211.203 51.4709 209.978 51.3139 209.903C49.4989 208.791 46.6478 205.563 47.213 203.246C47.3167 202.862 47.5005 202.504 47.7524 202.196C48.0042 201.888 48.3184 201.636 48.6743 201.459C49.0302 201.281 49.4198 201.18 49.8173 201.163C50.2149 201.147 50.6115 201.214 50.981 201.362C52.5699 201.921 53.6061 203.723 54.0833 205.237C54.636 207.001 54.1022 211.159 54.1022 211.159Z" fill="#590F3F"/>
</g>
<g opacity="0.15">
<path d="M233.559 177.894C234.068 179.69 236.806 182.861 236.812 182.867C236.819 182.874 238.351 180.424 238.433 180.261C239.331 178.327 239.927 174.069 238.175 172.443C237.876 172.182 237.526 171.988 237.148 171.872C236.769 171.756 236.37 171.72 235.977 171.768C235.584 171.816 235.205 171.946 234.865 172.15C234.526 172.354 234.233 172.627 234.005 172.951C232.988 174.295 233.12 176.361 233.559 177.894Z" fill="#590F3F"/>
<path d="M209.444 225.27L209.262 225.483L209.777 227.091L210.531 226.174C211.259 225.289 212.019 224.328 212.791 223.329C213.846 223.909 214.935 224.424 216.051 224.874C215.806 226.658 216.603 230.055 216.71 230.489C215.63 230.828 214.575 231.148 213.57 231.431C212.886 231.632 212.226 231.814 211.586 231.983L212.597 233.239L213.978 232.818C215.071 232.479 216.239 232.096 217.432 231.688C217.646 232.096 219.404 235.406 220.792 236.48C222.048 237.453 223.932 238.364 225.552 237.905C225.938 237.814 226.3 237.643 226.615 237.403C226.93 237.162 227.191 236.859 227.381 236.511C227.571 236.163 227.686 235.78 227.719 235.385C227.751 234.99 227.7 234.593 227.568 234.219C226.714 231.989 222.544 230.96 220.409 231.079C220.283 231.079 218.933 231.311 218.079 231.468C218.569 231.299 219.04 231.142 219.542 230.96C220.528 230.614 221.508 230.237 222.557 229.835L224.077 229.207C224.585 229.006 225.1 228.73 225.621 228.485C226.815 227.901 227.995 227.229 229.163 226.57C229.471 227.436 230.608 230.489 231.707 231.65C232.806 232.812 234.52 233.968 236.191 233.779C236.586 233.748 236.97 233.634 237.318 233.445C237.666 233.256 237.97 232.996 238.211 232.681C238.452 232.367 238.625 232.005 238.717 231.62C238.809 231.235 238.819 230.834 238.747 230.445C238.238 228.115 234.269 226.463 232.146 226.256C232.015 226.256 230.476 226.256 229.634 226.287C230.331 225.873 231.035 225.465 231.732 225.031C233.748 223.775 235.745 222.4 237.742 221.056C238.37 220.642 238.966 220.24 239.582 219.8C239.689 220.108 240.951 223.769 242.188 225.069C243.281 226.224 245.002 227.386 246.672 227.198C247.067 227.167 247.451 227.053 247.799 226.864C248.147 226.674 248.452 226.414 248.693 226.1C248.934 225.785 249.106 225.424 249.198 225.038C249.29 224.653 249.301 224.253 249.228 223.863C248.719 221.533 244.75 219.882 242.628 219.674C242.471 219.674 240.254 219.674 239.695 219.725C241.045 218.833 242.402 217.954 243.771 217.144C245.616 216.036 247.531 215.05 249.504 214.192C249.555 214.336 250.861 218.167 252.123 219.492C253.222 220.648 254.937 221.816 256.607 221.627C257.003 221.596 257.387 221.482 257.736 221.293C258.084 221.103 258.389 220.842 258.63 220.527C258.872 220.212 259.044 219.85 259.135 219.464C259.227 219.078 259.236 218.676 259.163 218.287C258.661 215.957 254.685 214.305 252.563 214.098C252.399 214.098 250.019 214.098 249.586 214.154C249.699 214.11 249.812 214.048 249.931 213.997C251.932 213.183 254.002 212.553 256.117 212.113C257.279 211.856 258.409 211.674 259.508 211.523C259.678 212.258 260.494 215.624 261.499 216.943C262.504 218.261 264.011 219.561 265.726 219.555C266.121 219.567 266.515 219.495 266.881 219.345C267.247 219.195 267.577 218.97 267.851 218.684C268.124 218.398 268.335 218.058 268.468 217.685C268.602 217.313 268.656 216.916 268.627 216.522C268.382 214.148 264.614 212.069 262.529 211.63C262.416 211.63 261.235 211.492 260.375 211.416C260.877 211.36 261.386 211.284 261.863 211.234C263.659 211.052 265.311 210.989 266.781 210.951C267.616 210.951 268.369 210.951 269.073 210.951C269.619 211.579 271.842 214.123 273.318 214.82C274.794 215.517 276.778 215.969 278.273 215.19C278.63 215.019 278.947 214.774 279.204 214.472C279.46 214.17 279.65 213.817 279.76 213.437C279.871 213.056 279.901 212.657 279.847 212.264C279.793 211.872 279.657 211.495 279.447 211.159C278.141 209.168 273.839 209.061 271.786 209.633C271.604 209.677 268.922 210.769 268.947 210.801L268.979 210.838C268.3 210.838 267.572 210.801 266.781 210.801C265.311 210.801 263.641 210.832 261.845 210.983C259.897 211.122 257.96 211.374 256.042 211.736C253.891 212.134 251.779 212.721 249.73 213.489L249.661 213.52C250.208 213.087 251.696 211.818 251.803 211.711C253.253 210.154 255.156 206.292 253.995 204.175C253.793 203.834 253.522 203.539 253.199 203.309C252.875 203.08 252.507 202.921 252.118 202.844C251.73 202.766 251.329 202.771 250.942 202.859C250.556 202.947 250.192 203.115 249.875 203.353C248.493 204.314 247.991 206.323 247.909 207.912C247.84 209.708 249.31 213.306 249.429 213.564C247.364 214.398 245.358 215.372 243.425 216.478C242.301 217.106 241.183 217.79 240.065 218.481C240.53 218.092 240.938 217.734 240.989 217.677C242.446 216.126 244.342 212.264 243.187 210.179C242.985 209.838 242.714 209.543 242.391 209.313C242.067 209.084 241.699 208.925 241.311 208.847C240.922 208.77 240.521 208.775 240.135 208.863C239.748 208.95 239.384 209.119 239.067 209.356C237.685 210.317 237.183 212.327 237.101 213.916C237.02 215.504 238.225 218.626 238.552 219.442L237.296 220.246C235.268 221.546 233.252 222.858 231.23 224.083C230.52 224.51 229.804 224.912 229.088 225.339C229.496 224.987 229.835 224.711 229.886 224.642C231.343 223.084 233.239 219.222 232.084 217.137C231.881 216.796 231.609 216.502 231.285 216.273C230.961 216.044 230.593 215.886 230.204 215.808C229.815 215.731 229.414 215.736 229.027 215.823C228.64 215.91 228.276 216.078 227.958 216.315C226.576 217.275 226.074 219.285 225.992 220.874C225.91 222.463 227.009 225.27 227.392 226.256C226.645 226.645 225.898 227.035 225.157 227.38C224.648 227.6 224.171 227.851 223.65 228.046L222.117 228.674C221.125 229.025 220.114 229.39 219.141 229.71C218.462 229.936 217.815 230.137 217.169 230.338C217.878 229.917 219.26 229.082 219.367 228.975C220.797 227.763 221.891 226.204 222.544 224.447C222.71 224.32 222.864 224.177 223.003 224.02C223.274 223.732 223.482 223.39 223.612 223.016C223.743 222.642 223.793 222.245 223.76 221.85C223.727 221.456 223.611 221.073 223.42 220.726C223.229 220.379 222.967 220.077 222.651 219.838C220.711 218.45 216.66 219.894 214.952 221.163C214.845 221.238 213.846 222.174 213.218 222.77C213.532 222.362 213.846 221.973 214.16 221.546C214.788 220.711 215.416 219.857 216.044 218.946L216.955 217.571C217.269 217.125 217.545 216.603 217.847 216.12C218.519 214.971 219.141 213.777 219.731 212.565C220.466 213.118 223.097 215.04 224.654 215.398C226.212 215.756 228.278 215.781 229.572 214.701C229.884 214.457 230.142 214.15 230.328 213.801C230.514 213.451 230.624 213.066 230.651 212.671C230.678 212.276 230.622 211.879 230.486 211.507C230.35 211.135 230.137 210.796 229.86 210.512C228.152 208.841 223.926 209.658 222.042 210.656C221.929 210.719 220.654 211.586 219.963 212.069C220.321 211.341 220.685 210.606 221.018 209.852C221.992 207.68 222.902 205.456 223.832 203.221C224.114 202.543 224.403 201.864 224.692 201.186C224.956 201.387 228.027 203.742 229.773 204.144C231.324 204.502 233.396 204.527 234.69 203.447C235.002 203.203 235.26 202.896 235.446 202.545C235.632 202.195 235.742 201.809 235.77 201.414C235.797 201.018 235.741 200.621 235.604 200.249C235.468 199.876 235.255 199.537 234.979 199.252C233.271 197.588 229.05 198.404 227.166 199.396C227.022 199.472 225.194 200.721 224.749 201.06C225.377 199.572 226.005 198.09 226.72 196.664C227.646 194.726 228.695 192.849 229.86 191.044C229.98 191.138 233.183 193.606 234.966 194.021C236.517 194.379 238.596 194.404 239.883 193.324C240.196 193.079 240.454 192.772 240.64 192.422C240.826 192.072 240.936 191.686 240.963 191.29C240.99 190.895 240.934 190.498 240.798 190.125C240.662 189.753 240.448 189.413 240.172 189.128C238.47 187.464 234.244 188.281 232.36 189.273C232.209 189.355 230.244 190.698 229.911 190.969C229.974 190.862 230.036 190.749 230.105 190.642C231.334 188.868 232.717 187.205 234.238 185.674C235.067 184.814 235.908 184.042 236.75 183.313C237.296 183.834 239.833 186.189 241.397 186.736C242.961 187.282 244.958 187.515 246.364 186.585C246.701 186.376 246.99 186.099 247.213 185.771C247.436 185.443 247.587 185.072 247.658 184.682C247.728 184.292 247.716 183.891 247.622 183.506C247.528 183.121 247.354 182.76 247.112 182.447C245.598 180.607 241.309 180.952 239.324 181.737C239.218 181.775 238.169 182.365 237.44 182.748C237.817 182.421 238.207 182.076 238.577 181.775C239.971 180.632 241.321 179.665 242.521 178.823C243.205 178.346 243.84 177.931 244.405 177.567C245.209 177.793 248.468 178.685 250.057 178.452C251.646 178.22 253.574 177.504 254.39 176.028C254.593 175.687 254.721 175.307 254.767 174.914C254.813 174.52 254.775 174.12 254.657 173.742C254.539 173.363 254.342 173.014 254.079 172.717C253.817 172.419 253.495 172.18 253.134 172.015C250.936 171.08 247.294 173.359 245.893 174.967C245.774 175.105 244.135 177.479 244.173 177.479H244.223C243.645 177.837 243.03 178.226 242.339 178.666C241.121 179.482 239.745 180.418 238.326 181.536C236.789 182.728 235.321 184.007 233.93 185.367C232.357 186.884 230.922 188.538 229.641 190.309L229.597 190.378C229.81 189.713 230.357 187.866 230.382 187.684C230.733 185.58 230.187 181.316 228.071 180.217C227.715 180.043 227.326 179.946 226.93 179.932C226.534 179.919 226.14 179.989 225.773 180.138C225.406 180.288 225.074 180.513 224.801 180.799C224.527 181.086 224.316 181.426 224.183 181.8C223.555 183.363 224.234 185.329 225.056 186.692C225.986 188.224 229.201 190.416 229.452 190.592C228.192 192.426 227.057 194.344 226.055 196.332C225.464 197.487 224.906 198.668 224.359 199.855C224.529 199.277 224.673 198.756 224.686 198.68C225.044 196.577 224.497 192.312 222.381 191.213C222.025 191.039 221.636 190.942 221.239 190.928C220.843 190.915 220.448 190.985 220.08 191.134C219.713 191.284 219.381 191.509 219.107 191.795C218.832 192.082 218.621 192.423 218.487 192.796C217.859 194.36 218.538 196.325 219.36 197.688C220.183 199.051 222.902 200.991 223.624 201.494C223.417 201.952 223.21 202.404 222.996 202.869C222.023 205.073 221.056 207.265 220.051 209.413C219.693 210.166 219.316 210.895 218.94 211.623C219.09 211.108 219.21 210.669 219.222 210.6C219.58 208.502 219.034 204.232 216.911 203.133C216.555 202.961 216.166 202.866 215.77 202.853C215.374 202.841 214.98 202.912 214.614 203.062C214.247 203.212 213.916 203.437 213.643 203.723C213.369 204.009 213.158 204.349 213.024 204.722C212.396 206.285 213.074 208.245 213.897 209.608C214.719 210.97 217.175 212.748 218.029 213.325C217.621 214.06 217.219 214.795 216.773 215.492C216.465 215.957 216.208 216.428 215.881 216.88L214.933 218.236C214.305 219.072 213.677 219.938 213.049 220.748C212.609 221.307 212.182 221.835 211.755 222.362C212.113 221.621 212.798 220.145 212.835 220.014C213.507 217.998 213.614 213.696 211.692 212.283C211.366 212.059 210.996 211.906 210.606 211.834C210.216 211.762 209.816 211.772 209.431 211.864C209.045 211.957 208.684 212.129 208.369 212.37C208.054 212.611 207.794 212.915 207.604 213.263C206.75 214.713 207.121 216.76 207.73 218.23C208.395 219.844 211.121 222.412 211.46 222.726C210.826 223.637 210.122 224.485 209.444 225.27Z" fill="#590F3F"/>
<path d="M259.797 211.159C259.797 211.203 262.429 209.978 262.586 209.903C264.4 208.791 267.252 205.563 266.686 203.246C266.583 202.862 266.399 202.504 266.147 202.196C265.895 201.888 265.581 201.636 265.225 201.459C264.869 201.281 264.48 201.18 264.082 201.163C263.684 201.147 263.288 201.214 262.918 201.362C261.33 201.921 260.293 203.723 259.816 205.237C259.263 207.001 259.797 211.159 259.797 211.159Z" fill="#590F3F"/>
</g>
<path d="M205.544 189.041L163.939 171.601L199.038 87.2732L240.643 104.713L205.544 189.041Z" fill="#235FD9" stroke="#353535" stroke-linecap="round" stroke-linejoin="round"/>
<path d="M232.291 113.323C231.577 113.027 230.935 112.582 230.407 112.018C229.879 111.453 229.477 110.782 229.23 110.05C228.983 109.318 228.895 108.542 228.972 107.773C229.049 107.004 229.29 106.26 229.679 105.592L205.815 95.5816C205.753 95.795 205.68 96.0046 205.595 96.2096C205.32 96.8729 204.917 97.4753 204.408 97.9819C203.9 98.4886 203.296 98.8895 202.631 99.1615C201.967 99.4336 201.255 99.5714 200.537 99.5671C199.819 99.5627 199.109 99.4162 198.448 99.1361C198.341 99.0921 198.241 99.0356 198.141 98.9854L171.664 162.752C171.771 162.79 171.878 162.822 171.978 162.866C172.696 163.157 173.342 163.599 173.873 164.163C174.404 164.727 174.807 165.399 175.054 166.133C175.302 166.867 175.388 167.646 175.307 168.416C175.225 169.186 174.979 169.93 174.584 170.596L198.48 180.607C198.537 180.393 198.608 180.183 198.693 179.979C198.97 179.319 199.374 178.721 199.882 178.217C200.39 177.714 200.992 177.316 201.654 177.045C202.315 176.775 203.024 176.637 203.739 176.64C204.454 176.644 205.162 176.788 205.821 177.065C206.028 177.153 206.229 177.259 206.449 177.366L232.951 113.549C232.725 113.49 232.505 113.415 232.291 113.323ZM198.448 146.443C196.822 145.761 195.434 144.612 194.461 143.142C193.488 141.671 192.972 139.945 192.98 138.181C192.987 136.418 193.518 134.696 194.504 133.234C195.489 131.772 196.887 130.635 198.519 129.967C200.151 129.299 201.944 129.13 203.673 129.481C205.401 129.832 206.986 130.687 208.228 131.939C209.47 133.191 210.313 134.784 210.65 136.514C210.988 138.245 210.804 140.038 210.123 141.664C209.671 142.745 209.01 143.727 208.179 144.552C207.347 145.378 206.361 146.031 205.277 146.475C204.192 146.919 203.031 147.145 201.859 147.139C200.688 147.134 199.528 146.897 198.448 146.443Z" fill="white" stroke="#353535" stroke-linecap="round" stroke-linejoin="round"/>
<path d="M204.998 189.254L165.522 167.419L209.545 87.3799L249.021 109.222L204.998 189.254Z" fill="#235FD9" stroke="#353535" stroke-linecap="round" stroke-linejoin="round"/>
<path d="M239.783 116.871C239.157 116.525 238.605 116.06 238.159 115.501C237.713 114.942 237.382 114.3 237.184 113.613C236.987 112.926 236.926 112.207 237.007 111.496C237.087 110.786 237.307 110.098 237.654 109.473C237.768 109.278 237.892 109.09 238.024 108.908L215.354 96.3478C215.271 96.5623 215.177 96.772 215.071 96.9758C214.371 98.2377 213.199 99.1702 211.811 99.5682C210.424 99.9662 208.936 99.7972 207.673 99.0984C207.573 99.0458 207.477 98.9871 207.384 98.9226L174.163 159.449C174.266 159.492 174.367 159.54 174.465 159.594C175.728 160.293 176.661 161.465 177.061 162.852C177.46 164.239 177.292 165.728 176.593 166.991C176.482 167.188 176.359 167.377 176.223 167.557L198.887 180.117C198.972 179.902 199.068 179.692 199.176 179.489C199.522 178.863 199.987 178.311 200.546 177.865C201.105 177.419 201.747 177.088 202.434 176.89C203.121 176.692 203.84 176.632 204.551 176.713C205.261 176.793 205.949 177.013 206.574 177.36C206.77 177.472 206.958 177.596 207.139 177.73L240.423 117.153C240.203 117.075 239.989 116.98 239.783 116.871ZM202.568 146.142C201.023 145.287 199.767 143.994 198.957 142.425C198.148 140.857 197.822 139.083 198.02 137.33C198.219 135.576 198.933 133.92 200.073 132.572C201.212 131.224 202.726 130.244 204.422 129.757C206.119 129.269 207.922 129.296 209.603 129.833C211.285 130.37 212.769 131.394 213.868 132.774C214.968 134.155 215.633 135.831 215.78 137.59C215.927 139.349 215.549 141.112 214.694 142.656C213.548 144.726 211.627 146.256 209.353 146.91C207.078 147.564 204.638 147.287 202.568 146.142Z" fill="white" stroke="#353535" stroke-linecap="round" stroke-linejoin="round"/>
<path d="M204.27 189.442L168.197 162.351L222.871 89.176L258.943 116.268L204.27 189.442Z" fill="#235FD9" stroke="#353535" stroke-linecap="round" stroke-linejoin="round"/>
<path d="M248.738 122.567C248.163 122.138 247.678 121.6 247.312 120.982C246.945 120.365 246.705 119.682 246.604 118.972C246.503 118.261 246.543 117.538 246.723 116.843C246.903 116.148 247.219 115.496 247.652 114.924C247.789 114.745 247.938 114.575 248.098 114.415L227.374 98.8535C227.26 99.0505 227.137 99.2413 227.003 99.425C226.135 100.577 224.846 101.338 223.418 101.541C221.989 101.743 220.539 101.371 219.385 100.505C219.291 100.436 219.21 100.361 219.122 100.292L177.843 155.631C177.937 155.694 178.032 155.75 178.12 155.819C179.273 156.687 180.036 157.977 180.239 159.407C180.443 160.836 180.071 162.288 179.206 163.443C179.069 163.623 178.92 163.793 178.76 163.952L199.484 179.508C199.591 179.31 199.713 179.121 199.848 178.942C200.278 178.371 200.816 177.89 201.432 177.526C202.047 177.162 202.729 176.924 203.437 176.823C204.145 176.723 204.865 176.763 205.558 176.941C206.25 177.12 206.901 177.432 207.472 177.862C207.652 177.997 207.822 178.144 207.981 178.302L249.316 122.937C249.116 122.826 248.923 122.702 248.738 122.567ZM207.83 146.431C206.419 145.371 205.354 143.916 204.77 142.251C204.186 140.585 204.108 138.784 204.548 137.075C204.987 135.366 205.923 133.825 207.238 132.648C208.553 131.471 210.187 130.71 211.934 130.461C213.681 130.213 215.463 130.488 217.054 131.252C218.645 132.016 219.973 133.235 220.872 134.754C221.77 136.273 222.198 138.024 222.101 139.786C222.004 141.548 221.387 143.242 220.327 144.654C219.622 145.59 218.74 146.378 217.73 146.973C216.72 147.568 215.603 147.957 214.442 148.12C213.281 148.283 212.1 148.215 210.966 147.921C209.831 147.627 208.766 147.112 207.83 146.406V146.431Z" fill="white" stroke="#353535" stroke-linecap="round" stroke-linejoin="round"/>
<path d="M203.547 189.524L171.419 157.848L235.387 92.6426L267.516 124.319L203.547 189.524Z" fill="#235FD9" stroke="#353535" stroke-linecap="round" stroke-linejoin="round"/>
<path d="M256.557 129.198C255.528 128.185 254.945 126.804 254.934 125.361C254.923 123.917 255.487 122.528 256.5 121.499C256.661 121.341 256.831 121.192 257.009 121.053L238.564 102.841C238.427 103.018 238.28 103.188 238.125 103.35C237.111 104.378 235.731 104.962 234.287 104.973C232.843 104.983 231.454 104.42 230.426 103.406C230.345 103.327 230.27 103.243 230.2 103.155L181.887 152.485C181.969 152.56 182.057 152.629 182.139 152.711C183.167 153.724 183.751 155.105 183.761 156.549C183.772 157.993 183.209 159.382 182.195 160.41C182.032 160.567 181.862 160.718 181.687 160.856L200.131 179.068C200.267 178.886 200.416 178.714 200.577 178.553C201.078 178.044 201.675 177.639 202.333 177.36C202.991 177.082 203.697 176.936 204.412 176.931C205.126 176.926 205.834 177.061 206.496 177.33C207.158 177.598 207.761 177.995 208.27 178.496C208.428 178.657 208.577 178.827 208.716 179.005L257.072 129.638C256.892 129.502 256.72 129.355 256.557 129.198ZM212.835 147.348C211.58 146.109 210.721 144.526 210.365 142.799C210.01 141.071 210.174 139.278 210.838 137.644C211.502 136.01 212.635 134.61 214.095 133.62C215.554 132.631 217.274 132.096 219.038 132.083C220.801 132.071 222.528 132.582 224.001 133.551C225.475 134.521 226.627 135.905 227.314 137.529C228 139.153 228.19 140.945 227.858 142.677C227.527 144.409 226.689 146.004 225.452 147.26C224.629 148.094 223.651 148.759 222.571 149.215C221.492 149.671 220.333 149.91 219.162 149.918C217.99 149.926 216.828 149.704 215.743 149.263C214.657 148.821 213.669 148.171 212.835 147.348Z" fill="white" stroke="#353535" stroke-linecap="round" stroke-linejoin="round"/>
<path d="M162.696 182.459L104.92 219.172L43.4829 122.133L101.259 85.4206C102.269 84.7791 103.493 84.5649 104.661 84.8252C105.829 85.0854 106.846 85.7987 107.489 86.8084L164.109 176.229C164.426 176.731 164.64 177.29 164.74 177.875C164.841 178.46 164.825 179.058 164.694 179.637C164.562 180.216 164.318 180.763 163.976 181.247C163.633 181.731 163.198 182.143 162.696 182.459Z" fill="#235FD9" stroke="#353535" stroke-linecap="round" stroke-linejoin="round"/>
<path d="M161.069 182.522L103.293 219.235L41.8623 122.196L99.6383 85.4834C100.649 84.8419 101.872 84.6277 103.04 84.888C104.209 85.1482 105.226 85.8615 105.868 86.8712L162.482 176.292C162.799 176.794 163.013 177.353 163.114 177.938C163.214 178.523 163.198 179.121 163.067 179.7C162.935 180.278 162.691 180.825 162.349 181.31C162.006 181.794 161.571 182.206 161.069 182.522Z" fill="white" stroke="#353535" stroke-linecap="round" stroke-linejoin="round"/>
<path d="M159.185 183.803L101.409 220.516L39.9722 123.477L97.7482 86.7645C98.7595 86.1227 99.9841 85.9084 101.153 86.1686C102.322 86.4288 103.341 87.1422 103.984 88.1523L160.598 177.573C160.915 178.075 161.129 178.634 161.23 179.219C161.33 179.804 161.314 180.402 161.183 180.981C161.052 181.56 160.808 182.107 160.465 182.591C160.122 183.075 159.687 183.487 159.185 183.803Z" fill="#235FD9" stroke="#353535" stroke-linecap="round" stroke-linejoin="round"/>
<path d="M70.8447 135.541L66.4048 128.558L68.1381 127.484C68.4774 127.247 68.8745 127.106 69.2873 127.076C69.6361 127.067 69.9774 127.178 70.2544 127.39C70.5911 127.642 70.8748 127.958 71.0897 128.319C71.31 128.642 71.4519 129.012 71.5041 129.399C71.5512 129.74 71.4897 130.088 71.3283 130.392C71.1374 130.732 70.8601 131.016 70.5245 131.214L69.752 131.698L71.8181 134.951L70.8447 135.541ZM69.3124 130.969L69.7583 130.687C69.9969 130.554 70.2097 130.38 70.3863 130.172C70.4466 130.094 70.49 130.005 70.5138 129.91C70.5376 129.815 70.5413 129.716 70.5245 129.619C70.4669 129.355 70.3558 129.104 70.1979 128.884C70.0433 128.621 69.8555 128.378 69.639 128.162C69.5691 128.093 69.4838 128.04 69.39 128.01C69.2961 127.979 69.1964 127.971 69.0989 127.986C68.8146 128.054 68.546 128.175 68.3076 128.344L67.8492 128.633L69.3124 130.969Z" fill="white"/>
<path d="M74.2797 133.356L71.3218 125.43L72.2638 124.834L78.1921 130.869L77.2689 131.453L75.8308 129.902L74.4115 130.806L75.1903 132.778L74.2797 133.356ZM74.1038 129.996L75.2656 129.261L72.6783 126.485L74.1038 129.996Z" fill="white"/>
<path d="M80.5973 129.45C80.2533 129.688 79.8475 129.821 79.4293 129.833C79.0486 129.828 78.6776 129.712 78.3617 129.5C78.0036 129.257 77.6929 128.95 77.4448 128.596L78.1607 127.817C78.3333 128.042 78.5245 128.252 78.7322 128.445C78.9096 128.617 79.1245 128.746 79.3602 128.822C79.4834 128.848 79.6108 128.848 79.7341 128.822C79.8573 128.796 79.9738 128.745 80.0761 128.671C80.1863 128.611 80.2825 128.529 80.3583 128.43C80.4341 128.33 80.4878 128.215 80.5157 128.093C80.5452 127.834 80.4757 127.574 80.321 127.365C80.1621 127.086 79.9177 126.866 79.6239 126.737C79.3266 126.63 79.0195 126.552 78.7071 126.504L76.8796 126.215C76.5494 126.169 76.2328 126.053 75.9501 125.876C75.6567 125.671 75.4104 125.406 75.2279 125.098C75.0765 124.888 74.9699 124.649 74.9148 124.396C74.8597 124.143 74.8573 123.882 74.9077 123.628C75.0493 123.126 75.3832 122.699 75.8371 122.441C76.0817 122.281 76.3512 122.162 76.6347 122.089C76.876 122.03 77.1281 122.03 77.3694 122.089C77.6224 122.16 77.8591 122.28 78.0665 122.441C78.3186 122.644 78.5462 122.876 78.7447 123.132L78.0602 123.886C77.9086 123.68 77.7383 123.489 77.5515 123.314C77.3952 123.165 77.1988 123.065 76.9863 123.025C76.7471 123.01 76.5093 123.072 76.3088 123.204C76.1083 123.335 75.956 123.528 75.8748 123.754C75.8507 123.876 75.8527 124.002 75.8809 124.123C75.909 124.244 75.9626 124.358 76.0381 124.457C76.1459 124.641 76.2967 124.796 76.4777 124.909C76.6718 125.017 76.8852 125.085 77.1057 125.11L78.9457 125.399C79.3812 125.46 79.8047 125.587 80.2017 125.776C80.626 125.985 80.9812 126.312 81.2253 126.718C81.427 127.026 81.548 127.38 81.577 127.748C81.5918 128.079 81.5135 128.407 81.3509 128.696C81.1648 129.005 80.9061 129.263 80.5973 129.45Z" fill="white"/>
<path d="M84.6734 126.856C84.3293 127.094 83.9235 127.227 83.5053 127.239C83.1265 127.235 82.7573 127.119 82.444 126.906C82.0832 126.666 81.7719 126.359 81.5271 126.002L82.2681 125.223C82.439 125.45 82.6303 125.66 82.8396 125.851C83.0166 126.024 83.2317 126.153 83.4676 126.228C83.5908 126.255 83.7183 126.255 83.8416 126.229C83.965 126.203 84.0814 126.151 84.1835 126.077C84.2943 126.02 84.3911 125.939 84.4671 125.841C84.5431 125.742 84.5963 125.628 84.6231 125.506C84.6561 125.246 84.5887 124.983 84.4347 124.771C84.2718 124.493 84.0258 124.274 83.7314 124.143C83.4361 124.036 83.1312 123.958 82.8208 123.911L80.987 123.622C80.6569 123.575 80.3402 123.46 80.0576 123.283C79.7641 123.078 79.5178 122.812 79.3354 122.504C79.1839 122.294 79.0773 122.055 79.0222 121.803C78.9671 121.55 78.9647 121.288 79.0151 121.034C79.1597 120.533 79.4958 120.109 79.9508 119.854C80.1937 119.693 80.4608 119.572 80.7421 119.496C80.9851 119.433 81.2401 119.433 81.4831 119.496C81.7358 119.564 81.9726 119.682 82.1802 119.841C82.4317 120.043 82.6574 120.275 82.8522 120.532L82.1676 121.286C82.016 121.08 81.8457 120.889 81.659 120.714C81.5042 120.563 81.3071 120.462 81.0938 120.425C80.8551 120.413 80.6187 120.477 80.4188 120.608C80.2189 120.739 80.066 120.93 79.9822 121.154C79.9596 121.276 79.9625 121.401 79.9906 121.522C80.0187 121.643 80.0714 121.757 80.1455 121.857C80.2551 122.041 80.4055 122.198 80.5851 122.316C80.7823 122.416 80.9943 122.484 81.2131 122.517L83.0531 122.799C83.4751 122.866 83.8854 122.993 84.2714 123.176C84.6945 123.387 85.0494 123.714 85.2951 124.118C85.4996 124.425 85.6207 124.78 85.6468 125.148C85.6616 125.479 85.5833 125.807 85.4207 126.096C85.2389 126.408 84.982 126.669 84.6734 126.856Z" fill="white"/>
<path d="M87.0532 125.236L82.6133 118.252L84.3466 117.153C84.6842 116.912 85.0819 116.769 85.4958 116.739C85.8442 116.733 86.1845 116.843 86.4629 117.053C86.7996 117.307 87.0833 117.625 87.2982 117.989C87.521 118.31 87.6632 118.681 87.7126 119.069C87.7596 119.408 87.6981 119.753 87.5368 120.055C87.3476 120.396 87.0699 120.68 86.733 120.877L85.9605 121.367L88.0266 124.614L87.0532 125.236ZM85.5209 120.67L85.9668 120.381C86.2069 120.251 86.42 120.076 86.5948 119.866C86.6544 119.789 86.6969 119.699 86.7196 119.604C86.7423 119.509 86.7447 119.41 86.7267 119.314C86.6691 119.05 86.5602 118.801 86.4064 118.579C86.2537 118.316 86.0656 118.075 85.8475 117.863C85.7776 117.793 85.6923 117.741 85.5985 117.711C85.5046 117.68 85.4049 117.672 85.3074 117.687C85.0223 117.749 84.753 117.869 84.5161 118.039L84.0577 118.334L85.5209 120.67Z" fill="white"/>
<path d="M93.0258 121.549C92.6437 121.818 92.1924 121.97 91.7258 121.989C91.3226 121.984 90.9329 121.842 90.6205 121.587C90.2457 121.278 89.9252 120.909 89.6723 120.494L87.9892 117.85C87.7228 117.453 87.5313 117.01 87.424 116.544C87.3321 116.163 87.3742 115.762 87.5433 115.408C87.7629 114.998 88.0938 114.658 88.4979 114.428C88.8779 114.159 89.3267 114.004 89.7916 113.982C90.1837 113.983 90.564 114.116 90.8717 114.359C91.2452 114.653 91.5622 115.013 91.8075 115.42L93.4968 118.077C93.7598 118.477 93.953 118.918 94.0683 119.383C94.1612 119.775 94.126 120.187 93.9678 120.557C93.7583 120.973 93.4306 121.319 93.0258 121.549ZM92.5422 120.783C92.7579 120.664 92.9279 120.476 93.0258 120.249C93.0956 120.046 93.0956 119.825 93.0258 119.621C92.9348 119.369 92.8124 119.128 92.6615 118.906L90.721 115.841C90.5792 115.614 90.4128 115.403 90.2249 115.213C90.0805 115.066 89.8898 114.972 89.6848 114.949C89.4382 114.949 89.1981 115.028 89.0003 115.175C88.7857 115.294 88.6126 115.476 88.5042 115.696C88.4275 115.899 88.4275 116.122 88.5042 116.324C88.5917 116.575 88.7098 116.813 88.8559 117.034L90.8027 120.092C90.9434 120.322 91.1122 120.533 91.3051 120.72C91.4514 120.874 91.6469 120.972 91.8577 120.997C92.1029 121.001 92.3429 120.926 92.5422 120.783Z" fill="white"/>
<path d="M95.8389 119.653L91.3989 112.669L92.8056 111.771C93.1861 111.512 93.6123 111.326 94.0616 111.225C94.4216 111.153 94.7952 111.211 95.1167 111.388C95.4894 111.62 95.7981 111.942 96.0147 112.324C96.1776 112.569 96.3064 112.835 96.3978 113.115C96.4822 113.35 96.5102 113.602 96.4795 113.85C96.4416 114.082 96.3418 114.299 96.1906 114.478L99.4059 117.348L98.4702 117.945L95.4746 115.251L94.7148 115.728L96.7935 119.006L95.8389 119.653ZM94.2877 115.056L94.6582 114.824C94.8995 114.687 95.1127 114.506 95.2862 114.29C95.4102 114.119 95.4641 113.908 95.437 113.699C95.3877 113.42 95.2784 113.154 95.1167 112.921C94.9439 112.594 94.6679 112.333 94.3317 112.18C94.144 112.149 93.9519 112.16 93.7687 112.211C93.5856 112.262 93.4155 112.352 93.2704 112.475L92.8371 112.745L94.2877 115.056Z" fill="white"/>
<path d="M101.108 116.318L97.1265 110.038L95.9459 110.792L95.4561 110.088L98.7593 107.985L99.2178 108.713L98.0685 109.442L102.05 115.722L101.108 116.318Z" fill="white"/>
<path d="M126.117 159.769C128.863 147.998 121.547 136.23 109.775 133.484C98.0042 130.738 86.2359 138.055 83.4902 149.826C80.7444 161.597 88.061 173.366 99.8322 176.111C111.603 178.857 123.372 171.541 126.117 159.769Z" stroke="white" stroke-miterlimit="10"/>
<path d="M116.537 173.273C120.91 170.493 119.199 159.971 112.716 149.77C106.232 139.568 97.4305 133.552 93.0574 136.332C88.6843 139.111 90.3953 149.634 96.8791 159.835C103.363 170.036 112.164 176.052 116.537 173.273Z" stroke="white" stroke-miterlimit="10"/>
<path d="M85.2319 145.275L104.606 132.96" stroke="white" stroke-miterlimit="10"/>
<path d="M83.0527 157.76L116.833 136.282" stroke="white" stroke-miterlimit="10"/>
<path d="M92.875 173.221L126.661 151.744" stroke="white" stroke-miterlimit="10"/>
<path d="M86.2871 166.558L123.433 142.952" stroke="white" stroke-miterlimit="10"/>
<path d="M105.284 176.82L124.658 164.505" stroke="white" stroke-miterlimit="10"/>
<path d="M206.795 275.199C234.184 247.809 234.184 203.402 206.795 176.013C179.405 148.624 134.998 148.624 107.609 176.013C80.2192 203.402 80.2191 247.809 107.609 275.199C134.998 302.588 179.405 302.588 206.795 275.199Z" fill="#D92399" stroke="#353535" stroke-linecap="round" stroke-linejoin="round"/>
<path d="M143.115 290.494C146.875 291.312 150.699 291.8 154.544 291.951" stroke="#353535" stroke-linecap="round" stroke-linejoin="round"/>
<path d="M134.518 288.001C136.423 288.692 138.357 289.299 140.32 289.822" stroke="#353535" stroke-linecap="round" stroke-linejoin="round"/>
<path d="M93.3394 207.441C88.8771 223.16 90.3653 239.972 97.5195 254.663C104.674 269.354 116.992 280.892 132.118 287.071" stroke="#353535" stroke-linecap="round" stroke-linejoin="round"/>
<path d="M102.264 188.343C99.8651 191.879 97.8125 195.637 96.1343 199.566" stroke="#353535" stroke-linecap="round" stroke-linejoin="round"/>
<path d="M147.699 194.454L154.846 195.936L157.283 198.467L160.46 198.957L161.471 201.971L160.73 204.012L158.564 205.004L153.257 204.138L153.113 203.485L155.625 201.732L153.891 198.536L149.144 197.889L146.613 195.723L147.699 194.454Z" fill="white"/>
<path d="M205.318 260.432L199.666 259.477L192.796 258.61L187.772 259.728L182.842 259.797L177.9 262.09L175.011 262.906L173.221 263.302L170.245 266.008L167.28 268.03L162.256 266.241L162.382 261.436L159.368 260.915L156.121 261.637L155.305 260.281L154.984 257.285L153.483 255.916L151.279 256.745L150.99 258.516L148.265 259.289L145.175 256.909L143.335 253.222L144.767 248.129L149.546 247.407L151.103 248.261L153.05 247.828L155.166 245.824L157.421 246L161.465 250.396L162.564 249.982L161.409 246.314L160.002 244.581L159.644 241.441L165.076 237.51L164.555 231.318L166.684 228.623L167.94 224.416L169.497 223.731L172.688 220.466L172.562 219.128L170 219.869L169.227 218.676L167.437 219.072L164.819 220.328L165.648 217.922L170.973 215.033L171.953 213.288L175.017 216.352L176.807 217.495L178.936 216.34L177.492 214.456L173.542 212.773L168.668 209.256L163.99 207.372L159.945 207.592L157.628 206.066L154.865 205.984L154.683 206.706L155.405 211.492L156.416 212.967L156.108 218.494L152.278 216.61V214.223L148.51 213.357L146.626 211.893L146.531 207.654L150.488 203.196L149.948 199.22L148.196 199.779L146.732 198.574L145.696 196.263L144.522 196.35L144.44 199.076L142.726 199.798L140.672 194.309L139.196 193.788L136.684 193.317L134.373 195.201L138.311 197.569L139.567 200.188L132.74 197.098L127.716 193.612L126.417 189.298L121.901 188.934L119.125 191.766C118.442 192.419 117.725 193.035 116.978 193.612C115.76 194.207 114.5 194.713 113.21 195.126L113.172 198.034L109.467 199.026L110.189 200.74L116.419 200.382L120.262 203.108L121.518 208.797L120.846 214.23L122.36 219.517L119.578 228.492L121.242 240.568L124.219 247.068L127.484 251.803L129.996 251.583L128.602 249.165L126.875 247.501L125.267 244.11L126.655 243.482L130.228 248.826L133.011 253.668L133.946 257.894L137.865 260.947L144.327 263.76L153.282 264.156L156.422 266.04L158.934 268.206L162.256 269.343L166.024 269.525L169.56 268.564C169.56 268.564 169.761 270.228 169.937 271.039C170.113 271.849 168.455 275.121 168.455 275.121L167.394 278.769L169.485 282.054L173.385 282.719L179.577 286.801L182.089 287.272L182.629 289.709L183.163 290.783C195.352 285.935 205.93 277.752 213.683 267.17L213.508 265.971L216.126 257.034L213.69 256.042L205.318 260.432Z" fill="white"/>
<path d="M207.962 192.495L205.488 189.807L202.417 186.736L200.69 182.007L203.723 181.844L203.522 180.186L201.374 180.493L202.982 179.281L204.678 177.711L204.32 176.085L201.808 173.918L200.615 170.515C188.605 161.057 173.835 155.78 158.551 155.486C143.267 155.193 128.305 159.899 115.941 168.888L120.275 170.709L118.654 174.144L115.709 175.476L116.337 179.935L115.15 180.713L113.894 182.861L114.704 185.75L117.543 185.461L117.015 188.475L119.778 187.847L123.157 180.789L123.069 178.076L127.547 176.744L128.25 174.54L132.853 173.008L132.728 170.138L136.1 169.215C136.1 169.215 138.254 167.375 138.738 167.268C139.723 167.259 140.708 167.324 141.683 167.462L144.553 168.875L147.963 168.116L150.475 165.679L154.281 165.177C154.896 165.414 155.559 165.5 156.215 165.428C157.025 165.246 159.211 163.544 159.211 163.544L164.574 165.428L166.847 166.458L167.387 168.894L169.899 168.675L170.389 167.035L172.719 167.538L172.844 168.875L168.254 171.262L171.814 174.22L178.383 176.173L181.523 178.88L185.172 178.409L185.624 176.606L186.849 175.978L181.906 173.667L179.231 173.918L181.197 172.8L178.635 170.471L181.36 169.698L185.373 170.854L187.05 174.571L189.304 176.286L191.816 180.682L195.967 182.484L197.154 187.847L201.437 189.455L201.67 191.276V193.499L203.296 196.206L203.924 197.6L206.794 197.475L207.485 194.423L207.962 192.495Z" fill="white"/>
<path d="M206.436 175.658L206.643 176.594L206.411 179.369L207.403 181.536L209.338 181.793L210.022 184.877L207.893 184.5L209.35 193.38L208.195 197.393L210.506 201.651L213.049 203.133L215.002 211.925L218.626 218.28L222.055 222.978L226.011 223.122L226.589 219.58L227.028 219.053C226.753 216.137 226.298 213.24 225.666 210.38C222.75 197.189 216.07 185.128 206.436 175.658Z" fill="white"/>
<path d="M168.681 182.98L156.906 180.644L152.233 181.856L151.781 185.197L149.357 183.514L145.966 185.122L146.832 190.56L150.224 192.017L151.649 188.463L154.632 190.359L160.642 193.625L162.664 198.121L168.078 202.549L174.653 199.892L173.949 197.493L171.871 195.057L170.1 188.626L171.117 185.505L168.681 182.98Z" fill="white"/>
<path d="M178.245 184.601L175.664 184.494L173.95 186.755L176.135 191.213L178.245 190.742V184.601Z" fill="white"/>
<path d="M194.046 184.337L187.866 182.635L186.296 180.939L185.109 181.718L186.968 184.714L188.877 188.72L191.534 189.154L191.879 188.4L189.87 186.284L194.46 186.974L194.046 184.337Z" fill="white"/>
<path d="M159.625 253.53L159.116 254.327L164.316 254.704L166.772 256.544L169.93 256.186L170.671 254.145L166.79 254.327L159.625 253.53Z" fill="white"/>
<path d="M174.772 253.404L171.576 255.138L172.348 256.331L176.575 255.395L177.096 253.913L175.67 254.403L174.772 253.404Z" fill="white"/>
<path d="M147.699 194.454L154.846 195.936L157.283 198.467L160.46 198.957L161.471 201.971L160.73 204.012L158.564 205.004L153.257 204.138L153.113 203.485L155.625 201.732L153.891 198.536L149.144 197.889L146.613 195.723L147.699 194.454Z" stroke="#353535" stroke-linecap="round" stroke-linejoin="round"/>
<path d="M205.318 260.432L199.666 259.477L192.796 258.61L187.772 259.728L182.842 259.797L177.9 262.09L175.011 262.906L173.221 263.302L170.245 266.008L167.28 268.03L162.256 266.241L162.382 261.436L159.368 260.915L156.121 261.637L155.305 260.281L154.984 257.285L153.483 255.916L151.279 256.745L150.99 258.516L148.265 259.289L145.175 256.909L143.335 253.222L144.767 248.129L149.546 247.407L151.103 248.261L153.05 247.828L155.166 245.824L157.421 246L161.465 250.396L162.564 249.982L161.409 246.314L160.002 244.581L159.644 241.441L165.076 237.51L164.555 231.318L166.684 228.623L167.94 224.416L169.497 223.731L172.688 220.466L172.562 219.128L170 219.869L169.227 218.676L167.437 219.072L164.819 220.328L165.648 217.922L170.973 215.033L171.953 213.288L175.017 216.352L176.807 217.495L178.936 216.34L177.492 214.456L173.542 212.773L168.668 209.256L163.99 207.372L159.945 207.592L157.628 206.066L154.865 205.984L154.683 206.706L155.405 211.492L156.416 212.967L156.108 218.494L152.278 216.61V214.223L148.51 213.357L146.626 211.893L146.531 207.654L150.488 203.196L149.948 199.22L148.196 199.779L146.732 198.574L145.696 196.263L144.522 196.35L144.44 199.076L142.726 199.798L140.672 194.309L139.196 193.788L136.684 193.317L134.373 195.201L138.311 197.569L139.567 200.188L132.74 197.098L127.716 193.612L126.417 189.298L121.901 188.934L119.125 191.766C118.442 192.419 117.725 193.035 116.978 193.612C115.76 194.207 114.5 194.713 113.21 195.126L113.172 198.034L109.467 199.026L110.189 200.74L116.419 200.382L120.262 203.108L121.518 208.797L120.846 214.23L122.36 219.517L119.578 228.492L121.242 240.568L124.219 247.068L127.484 251.803L129.996 251.583L128.602 249.165L126.875 247.501L125.267 244.11L126.655 243.482L130.228 248.826L133.011 253.668L133.946 257.894L137.865 260.947L144.327 263.76L153.282 264.156L156.422 266.04L158.934 268.206L162.256 269.343L166.024 269.525L169.56 268.564C169.56 268.564 169.761 270.228 169.937 271.039C170.113 271.849 168.455 275.121 168.455 275.121L167.394 278.769L169.485 282.054L173.385 282.719L179.577 286.801L182.089 287.272L182.629 289.709L183.163 290.783C195.352 285.935 205.93 277.752 213.683 267.17L213.508 265.971L216.126 257.034L213.69 256.042L205.318 260.432Z" stroke="#353535" stroke-linecap="round" stroke-linejoin="round"/>
<path d="M207.962 192.495L205.488 189.807L202.417 186.736L200.69 182.007L203.723 181.844L203.522 180.186L201.374 180.493L202.982 179.281L204.678 177.711L204.32 176.085L201.808 173.918L200.615 170.515C188.605 161.057 173.835 155.78 158.551 155.486C143.267 155.193 128.305 159.899 115.941 168.888L120.275 170.709L118.654 174.144L115.709 175.476L116.337 179.935L115.15 180.713L113.894 182.861L114.704 185.75L117.543 185.461L117.015 188.475L119.778 187.847L123.157 180.789L123.069 178.076L127.547 176.744L128.25 174.54L132.853 173.008L132.728 170.138L136.1 169.215C136.1 169.215 138.254 167.375 138.738 167.268C139.723 167.259 140.708 167.324 141.683 167.462L144.553 168.875L147.963 168.116L150.475 165.679L154.281 165.177C154.896 165.414 155.559 165.5 156.215 165.428C157.025 165.246 159.211 163.544 159.211 163.544L164.574 165.428L166.847 166.458L167.387 168.894L169.899 168.675L170.389 167.035L172.719 167.538L172.844 168.875L168.254 171.262L171.814 174.22L178.383 176.173L181.523 178.88L185.172 178.409L185.624 176.606L186.849 175.978L181.906 173.667L179.231 173.918L181.197 172.8L178.635 170.471L181.36 169.698L185.373 170.854L187.05 174.571L189.304 176.286L191.816 180.682L195.967 182.484L197.154 187.847L201.437 189.455L201.67 191.276V193.499L203.296 196.206L203.924 197.6L206.794 197.475L207.485 194.423L207.962 192.495Z" stroke="#353535" stroke-linecap="round" stroke-linejoin="round"/>
<path d="M206.436 175.658L206.643 176.594L206.411 179.369L207.403 181.536L209.338 181.793L210.022 184.877L207.893 184.5L209.35 193.38L208.195 197.393L210.506 201.651L213.049 203.133L215.002 211.925L218.626 218.28L222.055 222.978L226.011 223.122L226.589 219.58L227.028 219.053C226.753 216.137 226.298 213.24 225.666 210.38C222.75 197.189 216.07 185.128 206.436 175.658Z" stroke="#353535" stroke-linecap="round" stroke-linejoin="round"/>
<path d="M168.681 182.98L156.906 180.644L152.233 181.856L151.781 185.197L149.357 183.514L145.966 185.122L146.832 190.56L150.224 192.017L151.649 188.463L154.632 190.359L160.642 193.625L162.664 198.121L168.078 202.549L174.653 199.892L173.949 197.493L171.871 195.057L170.1 188.626L171.117 185.505L168.681 182.98Z" stroke="#353535" stroke-linecap="round" stroke-linejoin="round"/>
<path d="M178.245 184.601L175.664 184.494L173.95 186.755L176.135 191.213L178.245 190.742V184.601Z" stroke="#353535" stroke-linecap="round" stroke-linejoin="round"/>
<path d="M194.046 184.337L187.866 182.635L186.296 180.939L185.109 181.718L186.968 184.714L188.877 188.72L191.534 189.154L191.879 188.4L189.87 186.284L194.46 186.974L194.046 184.337Z" stroke="#353535" stroke-linecap="round" stroke-linejoin="round"/>
<path d="M159.625 253.53L159.116 254.327L164.316 254.704L166.772 256.544L169.93 256.186L170.671 254.145L166.79 254.327L159.625 253.53Z" stroke="#353535" stroke-linecap="round" stroke-linejoin="round"/>
<path d="M174.772 253.404L171.576 255.138L172.348 256.331L176.575 255.395L177.096 253.913L175.67 254.403L174.772 253.404Z" stroke="#353535" stroke-linecap="round" stroke-linejoin="round"/>
<path d="M222.45 178.044C221.174 178.044 219.909 178.296 218.73 178.785C217.551 179.274 216.48 179.991 215.578 180.895C214.676 181.798 213.962 182.871 213.475 184.051C212.988 185.231 212.739 186.495 212.741 187.772C212.741 193.135 222.45 203.956 222.45 203.956C222.45 203.956 232.165 193.135 232.165 187.772C232.167 186.495 231.917 185.23 231.429 184.05C230.942 182.87 230.226 181.798 229.324 180.894C228.422 179.991 227.35 179.274 226.171 178.785C224.991 178.296 223.727 178.044 222.45 178.044ZM222.45 192.03C221.603 192.034 220.773 191.785 220.067 191.317C219.361 190.848 218.81 190.181 218.484 189.398C218.158 188.616 218.071 187.755 218.236 186.923C218.4 186.092 218.808 185.328 219.407 184.729C220.006 184.13 220.77 183.722 221.602 183.558C222.433 183.393 223.294 183.48 224.077 183.806C224.859 184.132 225.527 184.683 225.995 185.389C226.464 186.095 226.712 186.925 226.708 187.772C226.705 188.9 226.255 189.981 225.457 190.779C224.659 191.577 223.578 192.027 222.45 192.03Z" fill="#353535" stroke="#353535" stroke-miterlimit="10"/>
<path d="M147.109 202.97C144.862 202.97 142.707 203.862 141.119 205.451C139.53 207.04 138.637 209.194 138.637 211.441C138.637 216.12 147.109 225.559 147.109 225.559C147.109 225.559 155.581 216.139 155.581 211.441C155.581 209.194 154.688 207.04 153.099 205.451C151.511 203.862 149.356 202.97 147.109 202.97ZM147.109 215.172C146.371 215.172 145.65 214.953 145.036 214.543C144.423 214.133 143.945 213.55 143.663 212.869C143.38 212.187 143.306 211.437 143.45 210.714C143.594 209.99 143.95 209.325 144.471 208.804C144.993 208.282 145.658 207.927 146.381 207.783C147.105 207.639 147.855 207.713 148.536 207.995C149.218 208.277 149.801 208.755 150.211 209.369C150.62 209.982 150.839 210.704 150.839 211.441C150.839 212.431 150.446 213.379 149.747 214.079C149.047 214.779 148.098 215.172 147.109 215.172Z" fill="#353535" stroke="#353535" stroke-miterlimit="10"/>
<path d="M179.144 269.035C178.014 269.035 176.93 269.484 176.131 270.282C175.331 271.08 174.881 272.163 174.879 273.293C174.879 275.648 179.144 280.396 179.144 280.396C179.144 280.396 183.401 275.648 183.401 273.293C183.4 272.164 182.951 271.082 182.152 270.284C181.354 269.486 180.272 269.037 179.144 269.035ZM179.144 275.171C178.771 275.171 178.407 275.06 178.097 274.853C177.787 274.646 177.546 274.352 177.403 274.008C177.26 273.663 177.223 273.285 177.296 272.919C177.368 272.554 177.548 272.218 177.811 271.955C178.075 271.691 178.411 271.512 178.776 271.439C179.141 271.366 179.52 271.404 179.864 271.546C180.209 271.689 180.503 271.93 180.71 272.24C180.917 272.55 181.028 272.914 181.028 273.287C181.028 273.534 180.979 273.779 180.884 274.008C180.789 274.236 180.651 274.444 180.476 274.619C180.301 274.794 180.093 274.933 179.864 275.027C179.636 275.122 179.391 275.171 179.144 275.171Z" fill="#353535" stroke="#353535" stroke-miterlimit="10"/>
<path d="M126.153 229.691C125.023 229.693 123.94 230.143 123.142 230.942C122.343 231.742 121.895 232.825 121.895 233.955C121.895 236.31 126.153 241.058 126.153 241.058C126.153 241.058 130.417 236.31 130.417 233.955C130.417 232.824 129.968 231.74 129.168 230.94C128.368 230.14 127.284 229.691 126.153 229.691ZM126.153 235.833C125.78 235.833 125.416 235.722 125.106 235.515C124.796 235.308 124.555 235.014 124.412 234.67C124.27 234.326 124.232 233.947 124.305 233.581C124.378 233.216 124.557 232.88 124.821 232.617C125.084 232.353 125.42 232.174 125.785 232.101C126.151 232.028 126.53 232.066 126.874 232.208C127.218 232.351 127.512 232.592 127.719 232.902C127.926 233.212 128.037 233.576 128.037 233.949C128.037 234.449 127.838 234.928 127.485 235.281C127.132 235.634 126.653 235.833 126.153 235.833Z" fill="#353535" stroke="#353535" stroke-miterlimit="10"/>
<path d="M141.225 247.627C140.665 247.627 140.111 247.737 139.594 247.951C139.077 248.166 138.607 248.48 138.212 248.876C137.816 249.272 137.503 249.742 137.289 250.259C137.075 250.777 136.966 251.331 136.967 251.891C136.967 254.246 141.225 258.993 141.225 258.993C141.225 258.993 145.489 254.246 145.489 251.891C145.489 250.76 145.04 249.675 144.24 248.876C143.44 248.076 142.356 247.627 141.225 247.627ZM141.225 253.769C140.852 253.769 140.488 253.658 140.178 253.451C139.868 253.244 139.627 252.95 139.484 252.605C139.341 252.261 139.304 251.882 139.377 251.517C139.45 251.152 139.629 250.816 139.892 250.552C140.156 250.289 140.492 250.109 140.857 250.037C141.223 249.964 141.601 250.001 141.946 250.144C142.29 250.287 142.584 250.528 142.791 250.838C142.998 251.148 143.109 251.512 143.109 251.885C143.109 252.384 142.91 252.863 142.557 253.217C142.204 253.57 141.724 253.769 141.225 253.769Z" fill="#353535" stroke="#353535" stroke-miterlimit="10"/>
<path d="M194.159 255.678C193.495 255.678 192.838 255.808 192.224 256.062C191.611 256.317 191.054 256.689 190.584 257.158C190.115 257.628 189.742 258.185 189.488 258.798C189.234 259.412 189.104 260.069 189.104 260.733C189.104 263.521 194.159 269.148 194.159 269.148C194.159 269.148 199.183 263.496 199.183 260.733C199.187 260.071 199.06 259.414 198.81 258.801C198.559 258.188 198.19 257.63 197.723 257.16C197.256 256.69 196.7 256.317 196.089 256.063C195.477 255.809 194.821 255.678 194.159 255.678ZM194.159 262.956C193.717 262.957 193.286 262.828 192.918 262.583C192.55 262.339 192.264 261.99 192.094 261.583C191.925 261.175 191.88 260.726 191.966 260.293C192.052 259.86 192.264 259.463 192.576 259.15C192.888 258.838 193.286 258.626 193.719 258.54C194.152 258.454 194.601 258.499 195.009 258.668C195.416 258.838 195.764 259.125 196.009 259.492C196.253 259.86 196.383 260.292 196.382 260.733C196.382 261.025 196.325 261.314 196.213 261.584C196.101 261.854 195.937 262.099 195.731 262.305C195.524 262.511 195.279 262.675 195.01 262.787C194.74 262.899 194.451 262.956 194.159 262.956Z" fill="#353535" stroke="#353535" stroke-miterlimit="10"/>
<path d="M193.788 159.085C192.599 159.085 191.458 159.557 190.618 160.398C189.777 161.239 189.304 162.38 189.304 163.569C189.304 166.081 193.788 171.048 193.788 171.048C193.788 171.048 198.278 166.024 198.278 163.569C198.277 162.379 197.803 161.239 196.961 160.398C196.119 159.557 194.978 159.085 193.788 159.085ZM193.788 165.547C193.397 165.547 193.014 165.431 192.689 165.214C192.364 164.996 192.11 164.687 191.96 164.326C191.811 163.964 191.772 163.567 191.848 163.183C191.924 162.799 192.113 162.447 192.389 162.17C192.666 161.893 193.018 161.705 193.402 161.629C193.786 161.552 194.184 161.592 194.545 161.741C194.907 161.891 195.216 162.145 195.433 162.47C195.65 162.795 195.766 163.178 195.766 163.569C195.766 164.094 195.558 164.597 195.187 164.968C194.816 165.339 194.313 165.547 193.788 165.547Z" fill="#353535" stroke="#353535" stroke-miterlimit="10"/>
<path d="M116.99 187.144C116.401 187.143 115.817 187.259 115.272 187.484C114.728 187.708 114.233 188.039 113.816 188.455C113.398 188.872 113.068 189.366 112.842 189.911C112.616 190.455 112.5 191.039 112.5 191.628C112.5 194.109 116.99 199.107 116.99 199.107C116.99 199.107 121.474 194.083 121.474 191.628C121.474 190.439 121.002 189.298 120.161 188.457C119.32 187.616 118.179 187.144 116.99 187.144ZM116.99 193.606C116.599 193.607 116.216 193.492 115.889 193.276C115.563 193.059 115.309 192.751 115.158 192.389C115.007 192.028 114.967 191.63 115.043 191.246C115.119 190.862 115.306 190.509 115.583 190.231C115.859 189.954 116.212 189.765 116.596 189.688C116.98 189.611 117.378 189.65 117.739 189.8C118.101 189.949 118.411 190.203 118.628 190.528C118.846 190.854 118.962 191.236 118.962 191.628C118.962 192.151 118.755 192.654 118.385 193.025C118.015 193.395 117.514 193.604 116.99 193.606Z" fill="#353535" stroke="#353535" stroke-miterlimit="10"/>
<path d="M170.226 90.5136C170.226 90.5136 169.836 125.87 169.836 131.71C169.836 137.551 169.353 143.203 169.353 143.203C169.353 143.203 171.105 144.459 170.81 145.928C170.483 147.174 170.026 148.382 169.447 149.533C168.778 149.382 168.087 149.35 167.406 149.439C166.722 149.634 162.633 151.48 161.949 151.48C161.264 151.48 160.975 152.064 160.781 150.224C160.569 148.577 160.504 146.915 160.586 145.256C160.708 143.776 160.937 142.307 161.271 140.86L157.176 96.1594L156.203 139.692C156.203 139.692 156.397 142.324 156.692 142.832C157.079 143.529 157.343 144.288 157.471 145.074C157.471 145.558 156.592 150.136 156.215 150.331C155.838 150.525 154.658 151.21 154.658 151.21C154.658 151.21 153.879 151.015 152.805 149.652C151.731 148.29 149.207 148.396 148.717 148.579L148.227 148.773C148.227 148.773 146.77 147.021 146.475 145.753C146.18 144.484 148.133 144.39 148.032 140.98C147.932 137.57 145.005 108.644 145.005 108.644L144.321 89.176L170.42 88.3973L170.226 90.5136Z" fill="#353535" stroke="#353535" stroke-miterlimit="10"/>
<path d="M160.002 45.3228L149.583 46.0073L149.194 90.5136C149.194 90.5136 149.973 91.1982 156.397 91.2924C162.821 91.3866 164.19 90.6141 164.19 90.6141L160.002 45.3228Z" fill="white" stroke="#353535" stroke-miterlimit="10"/>
<path d="M159.362 23.4056C159.362 23.4056 161.911 27.004 161.874 27.5504C161.802 28.088 161.697 28.6207 161.56 29.1455C161.56 29.1455 164.335 32.0092 164.072 32.2415L162.527 33.5603C162.527 33.5603 162.571 36.2419 162.571 36.6564C162.571 37.0708 163.161 38.1133 162.979 38.5404C162.768 39.0065 162.477 39.4317 162.118 39.7964C161.798 40.0664 159.475 40.0224 159.475 40.0224L159.431 43.7088C159.431 43.7088 159.839 46.0324 159.475 46.8488C159.11 47.6652 158.062 48.3058 155.424 48.4439C152.786 48.5821 151.499 47.684 150.727 47.0435C149.954 46.4029 150.055 40.5248 150.004 39.6142C149.954 38.7036 149.916 36.9704 149.414 36.1979C148.912 35.4255 145.646 29.9179 145.093 28.5489C144.541 27.1798 144.497 25.7731 145.546 24.5485C146.594 23.3239 147.913 22.7713 148.058 22.0868C148.202 21.4022 148.058 20.724 149.056 20.4037C149.783 20.2126 150.54 20.1657 151.285 20.2656C151.285 20.2656 153.201 17.9482 154.199 18.2183L155.204 18.4883C155.204 18.4883 157.98 17.7159 159.437 18.9468C160.894 20.1776 161.183 22.1307 159.362 23.4056Z" fill="white" stroke="#353535" stroke-miterlimit="10"/>
<path d="M159.882 29.8426C159.882 30.4203 160.058 30.8913 160.284 30.8913C160.51 30.8913 160.686 30.4203 160.686 29.8426C160.686 29.2648 160.504 28.7875 160.284 28.7875C160.064 28.7875 159.882 29.2585 159.882 29.8426Z" fill="#353535" stroke="#353535" stroke-miterlimit="10"/>
<path d="M148.026 22.0868C148.158 21.4022 148.026 20.724 149.024 20.4037C149.751 20.2126 150.509 20.1657 151.254 20.2656C151.254 20.2656 153.169 17.9482 154.168 18.2183L155.172 18.4883C155.172 18.4883 157.948 17.7159 159.405 18.9468C160.862 20.1776 161.182 22.1307 159.361 23.4056C159.361 23.4056 154.337 23.9519 154.965 24.8625C155.593 25.7731 155.876 26.5016 155.38 26.7465C154.884 26.9914 152.604 28.1532 152.83 28.6996C153.056 29.246 153.282 30.7029 152.968 30.7971C152.654 30.8913 152.692 30.7029 151.712 29.9744C150.733 29.246 149.615 29.7923 149.483 31.2304C149.432 31.7538 149.556 32.2791 149.836 32.7245C150.115 33.1699 150.534 33.5101 151.028 33.6922C151.53 33.7801 151.254 35.5762 150.299 36.2419C150.08 36.3877 149.844 36.5058 149.596 36.5936C149.542 36.4384 149.472 36.289 149.389 36.1477C148.886 35.3752 145.621 29.8677 145.068 28.4986C144.515 27.1296 144.471 25.7229 145.52 24.4983C146.569 23.2737 147.888 22.7713 148.026 22.0868Z" fill="#353535" stroke="#353535" stroke-miterlimit="10"/>
<path d="M162.024 34.967C162.024 34.967 159.977 35.3313 158.796 33.8806" stroke="#353535" stroke-miterlimit="10"/>
<path d="M159.449 40.0224L155.26 38.7036L159.361 42.8422L159.449 40.0224Z" fill="#353535" stroke="#353535" stroke-miterlimit="10"/>
<path d="M160.862 27.5252C160.862 27.5252 159.38 26.7151 158.52 27.9334" stroke="#353535" stroke-miterlimit="10"/>
<path d="M170.571 62.2788C170.571 62.2788 176.255 71.7992 176.412 73.6393C176.569 75.4793 173.416 81.8033 172.493 82.0105C171.57 82.2178 168.957 79.2473 168.656 78.0164C168.354 76.7856 167.883 62.8942 168.424 61.6884C168.964 60.4827 170.571 62.2788 170.571 62.2788Z" fill="#353535" stroke="#353535" stroke-miterlimit="10"/>
<path d="M161.145 45.216L166.596 45.6305C166.596 45.6305 169.598 44.9334 170.502 45.216C171.407 45.4986 184.262 50.4535 185.662 51.4332C187.063 52.4129 186.849 55.9674 186.497 57.4369C186.377 57.9495 186.094 58.4097 185.692 58.7491C185.289 59.0884 184.787 59.2889 184.262 59.3209C183.634 59.39 170.647 58.5547 170.647 58.5547L173.994 92.5672L167.011 94.828L162.056 95.456L159.606 53.0597L161.145 45.216Z" fill="#D92399" stroke="#353535" stroke-miterlimit="10"/>
<path d="M159.361 42.8484L161.145 45.216C161.145 45.216 161.352 48.7768 160.869 50.24C160.527 51.2266 160.107 52.1842 159.613 53.1037L157.377 47.9352C158.336 46.3713 159.008 44.6486 159.361 42.8484Z" fill="#D92399" stroke="#353535" stroke-miterlimit="10"/>
<path d="M150.72 54.4162L151.348 95.6067C151.348 95.6067 145.206 94.9159 143.184 94.0681C142.032 93.5868 140.904 93.0482 139.805 92.4542C139.805 92.4542 141.802 77.3822 141.878 76.1764C141.953 74.9706 141.953 73.947 141.953 73.947C141.953 73.947 137.425 75.561 135.736 75.0272C134.047 74.4934 133.814 72.7224 133.971 70.493C134.061 69.2599 134.073 68.0225 134.009 66.7878C134.009 66.4047 134.467 60.0431 136.314 55.2828C138.16 50.5226 137.042 50.3719 138.348 49.5304C139.655 48.6888 149.175 45.3039 149.175 45.3039L150.249 47.5333L150.72 54.4162Z" fill="#D92399" stroke="#353535" stroke-miterlimit="10"/>
<path d="M143.466 47.6087C143.466 47.6087 144.848 63.8864 143.234 69.2621L140.722 69.3438C140.879 71.2278 142.022 67.8805 142.33 57.6692C142.462 53.2732 140.49 48.6072 140.49 48.6072C141.456 48.2012 142.451 47.8674 143.466 47.6087Z" fill="#353535" stroke="#353535" stroke-miterlimit="10"/>
<path d="M150.18 43.0996C150.18 43.0996 151.091 45.4044 151.643 46.5913C152.196 47.7782 152.604 48.5507 152.604 48.5507L150.72 54.4162C149.936 52.2461 149.357 50.0068 148.993 47.728C148.711 45.0716 148.459 45.4798 148.459 45.4798C148.459 45.4798 149.69 42.6098 150.18 43.0996Z" fill="#D92399" stroke="#353535" stroke-miterlimit="10"/>
<path d="M169.108 35.4192C168.543 35.2263 168.004 34.967 167.5 34.6468C167.08 34.3014 166.244 32.97 165.962 32.6937C165.679 32.4174 164.297 32.9009 164.078 32.2415C163.858 31.5821 163.701 30.9039 164.53 31.0986C165.349 31.2457 166.178 31.3339 167.01 31.3623L165.698 27.0731H171.72C171.72 27.0731 173.466 33.014 173.466 33.4975C173.417 34.0399 173.325 34.5776 173.19 35.1052C173.19 35.1052 181.429 44.3242 183.175 46.629C184.921 48.9338 187.088 52.08 187.301 53.267C187.515 54.4539 186.88 58.2219 185.417 58.7117C183.954 59.2016 182.623 58.6426 181.09 57.1794C179.558 55.7162 174.942 46.2836 174.735 45.9319C174.528 45.5802 170.967 36.782 170.753 36.5119C170.237 36.1009 169.687 35.7353 169.108 35.4192Z" fill="white" stroke="#353535" stroke-miterlimit="10"/>
<path d="M166.043 45.687C166.043 45.687 167.808 57.2108 169.73 62.8942C171.651 68.5776 173.259 72.1823 173.259 72.1823L172.418 77.2063C170.147 73.0982 168.221 68.809 166.659 64.3826C164.046 57.0098 162.589 45.4923 162.589 45.4923L166.043 45.687Z" fill="#353535" stroke="#353535" stroke-miterlimit="10"/>
<path d="M150.67 56.7272L152.742 75.1214L140.923 73.7209L137.84 55.3896L150.67 56.7272Z" fill="white" stroke="#353535" stroke-miterlimit="10"/>
<path d="M149.15 56.8214L152.912 74.9455L141.005 74.6378L136.245 56.6707L149.15 56.8214Z" fill="white" stroke="#353535" stroke-miterlimit="10"/>
<path d="M137.626 67.2714C138.923 67.9706 140.256 68.5996 141.62 69.1554C142.236 69.4005 142.896 69.5138 143.558 69.4878C144.22 69.4619 144.869 69.2973 145.464 69.0046C146.136 68.6962 146.737 68.2514 147.228 67.6984C147.228 67.6984 147.611 65.626 148.07 65.3183C148.528 65.0106 149.609 64.7782 150.067 64.0623C150.525 63.3464 150.758 63.4343 150.915 64.1376C151.072 64.841 151.222 65.6009 150.758 65.9086C150.488 66.0859 150.297 66.3603 150.224 66.6748C150.224 66.6748 150.299 67.2148 150.915 66.9825C151.53 66.7501 151.913 65.984 152.529 66.2163C152.664 66.2385 152.792 66.2925 152.902 66.3738C153.013 66.4551 153.102 66.5614 153.163 66.6839C153.225 66.8065 153.256 66.9419 153.255 67.079C153.254 67.216 153.22 67.3508 153.157 67.4723C152.981 67.849 152.771 68.2085 152.529 68.5462C152.529 68.5462 153.295 70.3172 152.912 71.4664C152.529 72.6156 150.607 73.3127 149.684 73.3881C148.761 73.4634 146.154 73.5388 146.154 73.5388C146.154 73.5388 142.387 74.7948 140.088 75.4605C137.79 76.1262 137.092 76.0006 135.786 75.002C135.114 74.4829 134.62 73.7676 134.373 72.9552C134.125 72.1428 134.136 71.2736 134.405 70.4679C134.938 68.653 135.554 67.6544 137.626 67.2714Z" fill="white" stroke="#353535" stroke-miterlimit="10"/>
<path d="M168.863 148.076C168.863 148.076 170.119 151.091 170.42 151.675C171.069 152.723 171.974 153.587 173.052 154.187C174.515 155.059 176.267 155.644 175.878 156.422C175.488 157.201 173.736 157.396 172.273 157.59C170.81 157.785 167.406 157.201 166.037 157.201C164.668 157.201 161.641 156.717 161.364 156.033C161.088 155.348 161.465 150.481 161.465 150.481C161.465 150.481 163.701 147.976 168.863 148.076Z" fill="white" stroke="#353535" stroke-miterlimit="10"/>
<path d="M161.396 156.058C161.288 155.534 161.252 154.997 161.289 154.463L164.8 155.505C166.947 156.043 169.136 156.401 171.344 156.573C172.868 156.651 174.392 156.413 175.821 155.876C175.893 155.95 175.94 156.045 175.956 156.148C175.971 156.25 175.955 156.355 175.909 156.447C175.52 157.226 173.768 157.421 172.304 157.615C170.841 157.81 167.437 157.226 166.068 157.226C164.699 157.226 161.66 156.743 161.396 156.058Z" fill="white" stroke="#353535" stroke-miterlimit="10"/>
<path d="M154.947 150.72C154.947 150.72 154.658 155.744 154.589 156.108C154.52 156.472 154.162 156.736 153.169 156.856C152.177 156.975 151.744 156.925 151.179 157.201C150.613 157.477 149.401 158.086 145.991 158.086C142.581 158.086 141.514 157.458 141.941 156.246C142.368 155.034 145.633 152.629 146.418 151.675C147.072 150.734 147.626 149.728 148.07 148.673C148.07 148.673 149.043 147.856 150.965 148.265C152.887 148.673 153.383 149.426 153.596 149.765C153.997 150.149 154.452 150.47 154.947 150.72Z" fill="white" stroke="#353535" stroke-miterlimit="10"/>
<path d="M141.928 156.272C141.957 156.191 141.993 156.113 142.035 156.039C142.366 156.392 142.763 156.678 143.203 156.881C144.459 157.509 149.533 157.157 150.67 156.542C151.969 155.969 153.308 155.493 154.676 155.116C154.639 155.656 154.607 156.058 154.588 156.146C154.519 156.485 154.161 156.774 153.169 156.893C152.177 157.013 151.744 156.962 151.178 157.239C150.613 157.515 149.401 158.124 145.991 158.124C142.581 158.124 141.513 157.496 141.928 156.272Z" fill="white" stroke="#353535" stroke-miterlimit="10"/>
<path d="M164.096 28.0339L168.743 27.7262V31.3623L164.096 31.0546C163.876 31.0546 163.694 30.3826 163.694 29.5474C163.694 28.7122 163.908 28.0339 164.096 28.0339Z" fill="white" stroke="#353535" stroke-miterlimit="10"/>
<path d="M162.822 27.6697H164.285C164.323 27.6699 164.36 27.6795 164.394 27.6975C164.427 27.7156 164.456 27.7415 164.477 27.7731C164.498 27.8048 164.511 27.841 164.515 27.8788C164.518 27.9166 164.513 27.9548 164.498 27.99C164.338 28.4931 164.264 29.0196 164.279 29.5474C164.263 30.0732 164.338 30.5978 164.498 31.0986C164.513 31.1337 164.518 31.1719 164.515 31.2097C164.511 31.2475 164.498 31.2838 164.477 31.3154C164.456 31.347 164.427 31.3729 164.394 31.391C164.36 31.409 164.323 31.4186 164.285 31.4188H162.822C162.545 31.4188 162.319 30.5773 162.319 29.5348C162.319 28.4924 162.545 27.6697 162.822 27.6697Z" fill="white" stroke="#353535" stroke-miterlimit="10"/>
<path d="M167.431 27.0731L177.523 26.5707V32.5241L167.431 32.028C167.067 32.028 166.803 30.9164 166.803 29.5537C166.803 28.1909 167.048 27.0731 167.431 27.0731Z" fill="white" stroke="#353535" stroke-miterlimit="10"/>
<path d="M176.732 29.5474C176.732 31.1865 177.09 32.5241 177.523 32.5241C177.957 32.5241 178.314 31.1865 178.314 29.5474C178.314 27.9083 177.963 26.5707 177.523 26.5707C177.084 26.5707 176.732 27.902 176.732 29.5474Z" fill="white" stroke="#353535" stroke-miterlimit="10"/>
<path d="M162.332 28.0339L166.979 27.7262V31.3623L162.332 31.0546C162.112 31.0546 161.93 30.3826 161.93 29.5474C161.93 28.7122 162.112 28.0339 162.332 28.0339Z" fill="#353535" stroke="#353535" stroke-miterlimit="10"/>
<path d="M161.057 27.6697H162.52C162.558 27.6699 162.596 27.6795 162.629 27.6975C162.663 27.7156 162.691 27.7415 162.712 27.7731C162.733 27.8048 162.746 27.841 162.75 27.8788C162.754 27.9166 162.748 27.9548 162.734 27.99C162.576 28.4935 162.504 29.02 162.52 29.5474C162.503 30.0728 162.576 30.5973 162.734 31.0986C162.748 31.1337 162.754 31.1719 162.75 31.2097C162.746 31.2475 162.733 31.2838 162.712 31.3154C162.691 31.347 162.663 31.3729 162.629 31.391C162.596 31.409 162.558 31.4186 162.52 31.4188H161.057C160.781 31.4188 160.555 30.5773 160.555 29.5348C160.555 28.4924 160.768 27.6697 161.057 27.6697Z" fill="white" stroke="#353535" stroke-miterlimit="10"/>
<path d="M165.667 27.0731L175.759 26.5707V32.5241L165.667 32.028C165.309 32.028 165.039 30.9164 165.039 29.5537C165.039 28.1909 165.309 27.0731 165.667 27.0731Z" fill="#353535" stroke="#353535" stroke-miterlimit="10"/>
<path d="M174.967 29.5474C174.967 31.1865 175.325 32.5241 175.759 32.5241C176.192 32.5241 176.55 31.1865 176.55 29.5474C176.55 27.9083 176.198 26.5707 175.759 26.5707C175.319 26.5707 174.967 27.902 174.967 29.5474Z" fill="white" stroke="#353535" stroke-miterlimit="10"/>
<path d="M171.52 26.7151C171.52 26.7151 170.22 25.3147 169.736 25.3147C169.253 25.3147 168.48 26.5707 168.342 26.7151C168.204 26.8596 168.292 27.0982 168.819 27.1484C169.221 27.1353 169.609 26.9994 169.931 26.7591L171.52 26.7151Z" fill="white" stroke="#353535" stroke-miterlimit="10"/>
<path d="M169.736 25.3147C169.074 25.1444 168.396 25.0475 167.713 25.0258C167.324 25.12 166.602 26.7591 166.746 27.004C166.891 27.2489 168.341 26.7151 168.341 26.7151C168.341 26.7151 169.302 25.2644 169.736 25.3147Z" fill="white" stroke="#353535" stroke-miterlimit="10"/>
<path d="M167.375 25.1702C167.375 25.1702 166.602 24.6867 166.219 25.0258C165.836 25.3649 165.013 26.5204 165.208 26.9538C165.403 27.3871 166.747 27.004 166.747 27.004C166.747 27.004 167.048 25.3147 167.375 25.1702Z" fill="white" stroke="#353535" stroke-miterlimit="10"/>
<path d="M165.836 25.3147C165.836 25.3147 164.869 24.9316 164.53 25.3147C164.191 25.6978 163.331 26.9035 163.902 27.1987C164.473 27.4938 165.058 26.6209 165.058 26.6209L165.836 25.3147Z" fill="white" stroke="#353535" stroke-miterlimit="10"/>
</g>
<defs>
<clipPath id="clip0_23_175">
<rect width="314" height="314" fill="white"/>
</clipPath>
</defs>
</svg>
