<svg width="54" height="36" viewBox="0 0 54 36" fill="none" xmlns="http://www.w3.org/2000/svg">
<path d="M5.004 32V6.944H15.48C17.232 6.944 18.744 7.268 20.016 7.916C21.48 8.66 22.644 9.728 23.508 11.12C24.372 12.488 24.804 14 24.804 15.656C24.804 17.312 24.372 18.836 23.508 20.228C22.668 21.62 21.516 22.688 20.052 23.432C18.804 24.08 17.28 24.404 15.48 24.404H11.556V32H5.004Z" fill="#D92399"/>
<path d="M42.084 6.944C43.668 6.944 44.928 7.184 45.864 7.664C46.992 8.24 47.856 9.032 48.456 10.04C49.08 11.048 49.392 12.176 49.392 13.424C49.392 14.6 49.08 15.692 48.456 16.7C47.832 17.684 46.98 18.464 45.9 19.04C47.196 19.496 48.288 20.288 49.176 21.416C50.064 22.544 50.508 23.816 50.508 25.232C50.508 26.48 50.184 27.632 49.536 28.688C48.912 29.72 48.072 30.536 47.016 31.136C46.488 31.424 45.9 31.64 45.252 31.784C44.604 31.928 43.74 32 42.66 32H31.572V6.944H42.084Z" fill="#D92399"/>
</svg>
